<?xml version="1.0" encoding="utf-8"?>
<!-- Generator: Adobe Illustrator 25.0.0, SVG Export Plug-In . SVG Version: 6.00 Build 0)  -->
<svg version="1.1" id="Capa_1" xmlns="http://www.w3.org/2000/svg" xmlns:xlink="http://www.w3.org/1999/xlink" x="0px" y="0px"
	 viewBox="0 0 140 140" style="enable-background:new 0 0 140 140;" xml:space="preserve">
<style type="text/css">
	.st0{fill:#B02612;}
</style>
<g>
	<g>
		<path class="st0" d="M70.02,7.5C35.15,7.6,7.37,35.48,7.5,70.42c0.1,34.55,28.47,62.3,63.14,62.07
			c34.05-0.23,61.93-28.27,61.86-62.63C132.47,35.48,104.36,7.44,70.02,7.5z M69.76,122.69C40.5,122.56,17.1,98.83,17.26,69.41
			c0.13-28.9,24.03-52.27,53.31-52.1c28.73,0.13,52.3,24.03,52.13,52.82C122.54,99.29,98.84,122.82,69.76,122.69z"/>
	</g>
	<path class="st0" d="M53.73,102.34c-0.83,0-1.66-0.23-2.41-0.66c-2.38-1.39-3.05-4.24-1.62-6.78c3.91-6.69,9.47-11.97,17.01-16.19
		c7.72-4.32,16.63-6.6,27.22-6.98l1.73,0c2.86,0.12,4.94,2.21,4.88,4.87c0,2.6-2.03,4.63-4.72,4.69c-6.87,0.2-12.03,0.97-16.72,2.5
		c-9.68,3.23-16.61,8.49-21.17,16.09C56.94,101.45,55.42,102.34,53.73,102.34z"/>
	<g>
		<path class="st0" d="M61.84,51.27c0,4.36-3.75,8.12-8.11,8.12c-4.62,0-8.32-3.81-8.21-8.34c0.05-4.47,3.81-8.06,8.27-8.01
			C58.25,43.09,61.84,46.8,61.84,51.27z"/>
		<path class="st0" d="M94.48,51.29c-0.05,4.4-3.75,8.09-8.22,8.09c-4.46-0.05-8.11-3.69-8.11-8.14c0-4.56,3.75-8.31,8.27-8.2
			C90.95,43.15,94.48,46.84,94.48,51.29z"/>
	</g>
</g>
</svg>
