<?xml version="1.0" encoding="utf-8"?>
<!-- Generator: Adobe Illustrator 25.0.0, SVG Export Plug-In . SVG Version: 6.00 Build 0)  -->
<svg version="1.1" id="Capa_1" xmlns="http://www.w3.org/2000/svg" xmlns:xlink="http://www.w3.org/1999/xlink" x="0px" y="0px"
	 viewBox="0 0 140 140" style="enable-background:new 0 0 140 140;" xml:space="preserve">
<style type="text/css">
	.st0{fill:#EB0003;}
</style>
<g>
	<path class="st0" d="M93.07,79.33c-11.25-10.5-30.99-11.48-43.51-2.2c-6.85,5.06-10.59,11.63-9.99,20.1
		c0.18,2.83,1.54,4.02,4.5,4.02h52.05c2.69,0,4.07-1.3,4.28-3.79C101.01,90.29,98.38,84.27,93.07,79.33z M91.86,94.05
		c-7.3-0.03-14.6,0-21.91,0c-7.27,0-14.51-0.03-21.78,0c-1.03,0.03-1.15-0.26-0.94-1.13c1.27-5.7,4.95-9.6,10.23-12.03
		c9.84-4.51,19.43-4.02,28.45,2.05c3.62,2.43,5.94,5.81,6.85,10.04C92.92,93.76,92.86,94.08,91.86,94.05z"/>
	<g>
		<path class="st0" d="M62.38,52.46c0,4.19-3.45,7.67-7.62,7.64c-4.18-0.03-7.62-3.45-7.62-7.67s3.38-7.58,7.62-7.58
			S62.38,48.24,62.38,52.46z"/>
		<path class="st0" d="M92.87,52.46c0,4.19-3.45,7.64-7.62,7.64c-4.21,0-7.62-3.45-7.62-7.64c-0.03-4.22,3.35-7.61,7.59-7.61
			C89.45,44.85,92.87,48.21,92.87,52.46z"/>
	</g>
	<path class="st0" d="M70,7.5C35.54,7.5,7.5,35.54,7.5,70s28.04,62.5,62.5,62.5s62.5-28.04,62.5-62.5S104.46,7.5,70,7.5z M123.32,70
		c0,29.33-23.93,53.23-53.32,53.23S16.68,99.32,16.68,70c0-29.33,23.93-53.23,53.32-53.23S123.32,40.67,123.32,70z"/>
</g>
</svg>
