<?xml version="1.0" encoding="utf-8"?>
<!-- Generator: Adobe Illustrator 25.0.0, SVG Export Plug-In . SVG Version: 6.00 Build 0)  -->
<svg version="1.1" id="Capa_1" xmlns="http://www.w3.org/2000/svg" xmlns:xlink="http://www.w3.org/1999/xlink" x="0px" y="0px"
	 viewBox="0 0 140 140" style="enable-background:new 0 0 140 140;" xml:space="preserve">
<style type="text/css">
	.st0{fill:#764B22;}
</style>
<g>
	<path class="st0" d="M70.1,7.5C35.65,7.43,7.53,35.46,7.5,69.92c-0.03,34.49,27.98,62.55,62.47,62.58
		c34.42,0.03,62.47-27.93,62.53-62.35C132.57,35.67,104.59,7.57,70.1,7.5z M70,123.11c-29.29,0-53.09-23.82-53.09-53.07
		C16.87,40.7,40.77,16.82,70.06,16.89c29.32,0.06,53.06,23.88,53.03,53.16C123.09,99.33,99.26,123.15,70,123.11z"/>
	<path class="st0" d="M54.64,93.2l-7.69-0.02c-2.02,0-3.85-0.91-4.9-2.43c-0.98-1.42-1.17-3.21-0.52-4.89
		c0.76-2.13,2.62-3.46,4.96-3.51c0.62-0.03,1.29-0.04,1.97-0.04l44.44,0.01c3.25,0,5.58,1.87,5.92,4.77
		c0.16,1.67-0.31,3.17-1.32,4.29c-1.05,1.16-2.58,1.8-4.32,1.8l-6.15,0.02H54.64z"/>
	<g>
		<ellipse class="st0" cx="85.62" cy="52.02" rx="7.81" ry="7.83"/>
		<ellipse class="st0" cx="54.38" cy="52.02" rx="7.81" ry="7.83"/>
	</g>
</g>
</svg>
