<?xml version="1.0" encoding="utf-8"?>
<!-- Generator: Adobe Illustrator 25.0.0, SVG Export Plug-In . SVG Version: 6.00 Build 0)  -->
<svg version="1.1" id="Capa_1" xmlns="http://www.w3.org/2000/svg" xmlns:xlink="http://www.w3.org/1999/xlink" x="0px" y="0px"
	 viewBox="0 0 140 140" style="enable-background:new 0 0 140 140;" xml:space="preserve">
<style type="text/css">
	.st0{fill:#3B7131;}
</style>
<g>
	<g>
		<path class="st0" d="M70.15,7.5C35.5,7.44,7.6,35.28,7.5,70.06c-0.1,34.06,27.86,62.2,61.77,62.43
			c34.94,0.26,63.2-27.82,63.23-62.5C132.53,35.64,104.57,7.6,70.15,7.5z M69.82,122.66c-29.17-0.07-52.6-23.76-52.5-53.18
			c0.1-28.8,23.88-52.2,53.05-52.14C99.12,17.4,122.74,41.17,122.65,70C122.58,99.12,98.93,122.72,69.82,122.66z"/>
	</g>
	<path class="st0" d="M69.16,101.97c-10.34-0.16-19.24-3.19-26.46-9.01c-1.53-1.24-2.69-2.37-3.63-3.58c-1.81-2.2-1.62-5.27,0.5-7.1
		c0.97-0.81,2.06-1.22,3.21-1.22c1.42,0,2.78,0.64,3.83,1.81c4.22,4.67,9.85,7.48,17.2,8.58c2.2,0.34,4.37,0.5,6.46,0.5
		c4.8,0,9.41-0.89,13.71-2.65c3.79-1.54,6.81-3.62,9.25-6.34c1.12-1.24,2.54-1.92,3.98-1.92c1.19,0,2.31,0.44,3.25,1.29
		c2.16,1.98,2.22,5.06,0.18,7.33c-4.15,4.65-9.42,7.95-16.11,10.09c-4.48,1.47-9.36,2.16-15.33,2.2h-0.02H69.16z"/>
	<g>
		<path class="st0" d="M61.84,51.31c-0.07,4.46-3.72,8.07-8.16,8.07c-4.5,0-8.16-3.74-8.16-8.34c0.07-4.4,3.78-8.01,8.16-8.01
			C58.25,43.04,61.91,46.78,61.84,51.31z"/>
		<path class="st0" d="M94.47,51.24c-0.07,4.46-3.79,8.14-8.16,8.14c-4.5,0-8.16-3.68-8.16-8.14c0-4.59,3.72-8.27,8.29-8.2
			C90.88,43.11,94.47,46.78,94.47,51.24z"/>
	</g>
</g>
</svg>
