<?xml version="1.0" encoding="utf-8"?>
<!-- Generator: Adobe Illustrator 25.0.0, SVG Export Plug-In . SVG Version: 6.00 Build 0)  -->
<svg version="1.1" id="Capa_1" xmlns="http://www.w3.org/2000/svg" xmlns:xlink="http://www.w3.org/1999/xlink" x="0px" y="0px"
	 viewBox="0 0 140 140" style="enable-background:new 0 0 140 140;" xml:space="preserve">
<style type="text/css">
	.st0{fill:#009640;}
</style>
<g>
	<g>
		<path class="st0" d="M70.1,7.5C35.68,7.47,7.6,35.43,7.5,69.81C7.43,104.3,35.34,132.4,69.83,132.5
			c34.45,0.14,62.6-27.89,62.67-62.35C132.57,35.63,104.59,7.57,70.1,7.5z M69.97,122.31c-28.83,0-52.26-23.44-52.26-52.29
			c-0.03-28.85,23.4-52.26,52.26-52.32c28.83-0.03,52.29,23.38,52.36,52.26C122.36,98.8,98.86,122.34,69.97,122.31z"/>
	</g>
	<path class="st0" d="M44.34,95.4c12.52,11.7,34.47,12.8,48.4,2.45c7.62-5.64,11.78-12.96,11.11-22.4c-0.2-3.16-1.71-4.48-5-4.48
		H40.95c-2.99,0-4.53,1.45-4.77,4.22C35.51,83.19,38.43,89.89,44.34,95.4z M45.68,79c8.12,0.03,16.24,0,24.37,0
		c8.09,0,16.14,0.03,24.23,0c1.14-0.03,1.28,0.29,1.04,1.26c-1.41,6.35-5.5,10.7-11.38,13.41C73,98.69,62.33,98.14,52.29,91.38
		c-4.03-2.71-6.61-6.48-7.62-11.18C44.51,79.32,44.57,78.97,45.68,79z"/>
	<g>
		<ellipse class="st0" cx="53.25" cy="50.49" rx="8.48" ry="8.49"/>
		<ellipse class="st0" cx="86.75" cy="50.49" rx="8.48" ry="8.49"/>
	</g>
</g>
</svg>
