<?xml version="1.0" encoding="utf-8"?>
<!-- Generator: Adobe Illustrator 25.0.0, SVG Export Plug-In . SVG Version: 6.00 Build 0)  -->
<svg version="1.1" id="Capa_1" xmlns="http://www.w3.org/2000/svg" xmlns:xlink="http://www.w3.org/1999/xlink" x="0px" y="0px"
	 viewBox="0 0 1080 1920" style="enable-background:new 0 0 1080 1920;" xml:space="preserve">
<style type="text/css">
	.st0{fill:none;}
	.st1{opacity:0.15;}
	.st2{fill:#EB0003;}
	.st3{opacity:0.15;fill:#EB0003;}
	.st4{fill:url(#SVGID_1_);}
</style>
<pattern  y="-185.14" width="420" height="400" patternUnits="userSpaceOnUse" id="Motivo_nuevo_2" viewBox="48.43 -455.78 420 400" style="overflow:visible;">
	<g>
		<rect x="48.43" y="-455.78" class="st0" width="420" height="400"/>
		<g>
			<g class="st1">
				<path class="st2" d="M81.41-100.91c0.85-0.25,1.87-0.2,3.09,0.25c7.59,2.85,5.06,15.22,8.85,20.66c0.18,0.26,0.26,0.53,0.28,0.8
					c0.53-0.4,1.07-0.81,1.59-1.23c1.05-0.83,2.35,0.02,2.49,1.01c5.18,2.87,8.95,7.34,14.39,9.44l0.13-0.05
					c0.72-0.25,1.24,0.07,1.5,0.58c0.81,0.23,1.65,0.4,2.54,0.51c7.38,0.87,14.81,0.33,21.78,3.38c8.55,3.74,14.9,10,19.01,17.91
					c0.74,1.43,1.42,2.92,2.02,4.45c1.68,2.87,2.41,6.35,1.92,9.56c-2.02,13.24-15.79,22.93-27.09,28.11
					c-9,4.12-23.55,8.98-32.4,2.06l0,0c-0.66-0.52-1.3-1.09-1.89-1.75c-0.17-0.18-0.26-0.37-0.31-0.57l-0.08-0.05
					c-8.18-6.83-10.99-17.29-11.09-27.61l0,0c-0.01-1.27,0.01-2.54,0.08-3.79c0.28-5.22,2.2-13.17,2.16-20.25l0-0.02
					c-0.02-3.48-0.53-6.74-1.93-9.38l0,0c-0.85-1.59-2.02-2.95-3.62-3.98c-1.05-0.67-0.72-1.95,0.08-2.48
					c-0.05-0.51,0.18-1,0.83-1.24l0.07-0.03c-5.3-7.43-16.54-7.76-21.04-15.95c-0.38-0.69-0.07-1.66,0.64-1.99
					c4.04-1.9,7.96-1.34,12.18-0.95C77.74-96.57,78.77-100.15,81.41-100.91L81.41-100.91z M138.65-43.86
					c-2.67,1.16-5.21,2.62-7.56,4.07c-5.76,3.56-11.26,7.71-16.11,12.45c-5.98,5.83-9.47,12.76-13.16,20.15
					c7.62,8.37,23.28,2.71,31.62-1.4c9.48-4.68,23.35-13.48,24.6-25.24c0.16-1.51,0.05-3.1-0.31-4.62
					c-0.14-0.16-0.26-0.35-0.33-0.59c-0.26-0.86-0.54-1.7-0.86-2.55c-1.35-2.46-3.56-4.3-6.65-4.58c-0.14-0.01-0.28-0.04-0.43-0.05
					C145.78-46.38,142.11-45.37,138.65-43.86z M95.77-77.12c-2.47,1.89-5.03,3.66-7.92,4.84C94.29-66.71,93.3-56,92.3-48.09l0,0.01
					c-0.06,0.47-0.12,0.94-0.18,1.39c-0.52,4.02-0.94,8.32-0.97,12.61l0,0c-0.04,9.14,1.75,18.26,8.48,24.68
					c0.15-0.3,0.3-0.6,0.45-0.9l0,0c4.18-8.22,8.49-15.52,15.58-21.72c4.01-3.51,8.33-6.9,12.92-9.78c2.53-1.59,5.14-3.03,7.84-4.23
					c4.87-2.17,11.48-4.58,16.81-2.43c-1.81-3.01-4.01-5.78-6.55-8.16l-0.23-0.03c-11.39-2.79-23.25,4.7-30.58,12.85
					c-1.28,1.42-3.24-0.8-1.98-2.2c7.01-7.8,17.59-14.43,28.36-14.13c-3.28-2.18-6.94-3.77-10.92-4.53c-0.19,0.2-0.45,0.36-0.8,0.42
					c-12.1,2.21-23.73,10.08-29.05,21.36c-0.8,1.7-3.62,0.78-2.8-0.95c4.78-10.13,14-17.79,24.53-21.5
					c-3.86-0.12-7.85-0.26-11.42-1.39c-3.87,1.66-6.88,4.77-10.24,7.24c-1.53,1.12-3.52-1.07-1.98-2.2c2.99-2.2,5.68-4.68,8.81-6.54
					C103.87-70.76,100.41-74.81,95.77-77.12z M82.02-97.97L82.02-97.97c-1.87,0.8-1.57,4.7-1.52,6.17c0.03,0.8-0.83,1.43-1.57,1.38
					c-3.61-0.26-7.15-1.09-10.61-0.09c2.66,3.38,7.19,4.97,10.89,6.95c2.51,1.35,4.81,2.82,6.76,4.71l0,0
					c0.93,0.9,1.79,1.88,2.55,3.01c1.03-0.55,2.03-1.16,2.99-1.82c-0.13-0.09-0.25-0.2-0.36-0.36c-3.06-4.39-2.78-8.54-4-13.54
					c-0.44-1.82-1.78-6.65-4.46-6.56C82.43-98.12,82.22-98.06,82.02-97.97z"/>
			</g>
		</g>
		<g>
			<g class="st1">
				<path class="st2" d="M514.81-265.62c0.06-0.17,0.09-0.34,0.14-0.51c5.66,1.23,11.36,2.25,17.11,2.97
					c1.21,0.15,2.16-1.55,1.23-2.44c-1.45-1.37-2.85-2.77-4.34-4.08c2.25-0.58,4.51-1.12,6.74-1.78c1.29-0.38,1.75-2.41,0.21-2.85
					c-2.96-0.84-5.83-1.92-8.7-2.99c3.79-2.4,7.74-4.42,11.94-6.09c1.33-0.53,0.94-2.88-0.54-2.81c-5.14,0.23-10.28,0.18-15.41,0.48
					c2.1-3.1,4.92-5.69,7.01-8.81c0.66-0.99-0.19-2.7-1.5-2.29c-4.08,1.25-7.59,3.71-11.52,5.25c0.05-1.87,0.47-3.61,1.06-5.46
					c0.33-1.04-0.45-1.81-1.28-1.93c-0.6-0.36-1.42-0.35-1.95,0.38c-2.78,3.86-6.45,7.59-7.89,12.23c-7.71-5.16-17.25-0.44-24,4.44
					c-5.4,3.9-9.84,9.32-14.42,14.1c-5.11,5.33-10.1,10.8-14.81,16.5c-0.93,1.13,0.37,2.37,1.5,2.29
					c14.87-0.97,30.08,1.75,44.46-3.31C506.13-254.54,512.54-259.14,514.81-265.62z M514.33-292.88c-0.11,1.18-0.12,2.37,0,3.63
					c0.07,0.74,1.01,1.39,1.74,1.17c2.94-0.9,5.59-2.43,8.32-3.8c-1.94,2.31-3.91,4.59-5.3,7.33c-0.56,1.11,0.72,2.03,1.68,1.94
					c3.51-0.32,7.04-0.39,10.56-0.46c-2.88,1.49-5.67,3.14-8.37,5c-0.96,0.66-0.5,2.17,0.47,2.52c2.26,0.82,4.5,1.68,6.76,2.48
					c-1.56,0.4-3.13,0.79-4.68,1.25c-1.21,0.36-1.66,1.87-0.56,2.67c1.02,0.74,1.96,1.56,2.88,2.41c-4.18-0.63-8.34-1.41-12.48-2.32
					c0-5.36-3.63-10.96-5.67-15.58C510.48-287.7,512.35-290.35,514.33-292.88z M458.38-252.09c7.06-8.29,14.68-16.07,22.3-23.84
					c5.91-6.04,17.53-13.64,25.56-7.41c0.31,0.24,0.63,0.32,0.93,0.3c2.46,5.47,6.59,11.49,4.47,17.55
					c-2.49,7.11-12.13,10.62-18.73,12.08C481.61-250.91,469.87-252.4,458.38-252.09z"/>
			</g>
			<path class="st3" d="M504.5-353.29c-0.14,0.59-0.8,1.15-1.43,1.09c-0.18-0.02-0.36-0.05-0.55-0.06
				c-0.53,4.92-2.31,9.51-4.75,13.8c-0.42,0.73-1.31,0.89-2.02,0.53c-0.32-0.16-0.64-0.32-0.97-0.48c-1.34,1.96-3.11,5.72-5.67,6.36
				c-2.46,0.61-5.24-1.07-7.49-1.98c-0.29,0.59-0.56,1.18-0.8,1.8c-0.36,0.95-1.25,1.32-2.17,0.88c-3.28-1.54-6.3-3.45-9.11-5.69
				c-0.12,0.21-0.24,0.41-0.36,0.62c-0.11,0.2-0.22,0.4-0.34,0.59c-0.48,0.8-1.66,1.01-2.32,0.3c-4.63-4.89-9.35-9.35-11.19-15.89
				c-0.51,0.48-1.02,0.95-1.52,1.42c-0.64,0.6-1.91,0.6-2.32-0.3c-2.83-6.14-3.09-12.31-2.21-18.89c-0.99-0.15-2.04-0.42-3.15-0.82
				c-0.82-0.29-1.18-0.98-1.03-1.82c1.63-9.49,12.91-16.39,21.75-17.81c0.47-0.08,0.86,0.06,1.17,0.29
				c0.11-0.17,0.25-0.33,0.45-0.47c0.24-0.16,0.48-0.31,0.72-0.46c8.91-5.78,21.05-5.86,30.04-0.2c0.86,0.54,0.92,1.58,0.3,2.32
				c-1.47,1.75-3.26,3.12-5.25,4.18c4.01,1.69,7.21,5.09,8.92,9.18c0.25,0.6-0.16,1.37-0.68,1.67c-0.3,0.18-0.62,0.34-0.94,0.5
				C505.5-367.66,505.84-359.03,504.5-353.29z M489.7-382.12c-2.99,0.88-6.16,1.27-9.19,1.31c0.64,1.39,0.95,2.92,0.81,4.56
				c0.15,0.04,0.31,0.11,0.47,0.23c4.51,3.38,12.77,3.32,18.03,0.93C497.83-378.83,493.97-381.8,489.7-382.12z M492.38-360.57
				c-0.13-3.36-1.16-6.42-2.76-9.47c-0.08-0.15-0.12-0.29-0.15-0.43c-3.31-0.23-6.48-1.1-8.87-2.77c-0.11,0.27-0.26,0.52-0.39,0.78
				c0.05,3.19-0.26,6.39-0.99,9.44l0.24,0.02C483.76-362.12,488.01-361.05,492.38-360.57z M488.25-358.2
				c-3.21-0.56-6.38-1.3-9.58-1.96c-0.1-0.02-0.18-0.05-0.27-0.08c-0.92,2.63-2.23,5.08-3.98,7.25c3.08,4.49,6.9,8.11,11.82,10.39
				C487.47-347.76,488.94-352.85,488.25-358.2z M471.76-388.41c2.45,1.05,4.94,2.62,6.76,4.65l0.21-0.01
				c3.31,0.1,6.89-0.21,10.2-1.21l0.19-0.06c2.58-0.8,4.98-2.03,6.95-3.83C488.53-392.84,479.16-392.64,471.76-388.41z
				 M469.17-371.84c0.55,1.2,1.13,2.36,1.68,3.42c2.23-1.01,4.93-2.41,6.4-4.4c0.01-0.58,0.3-0.98,0.7-1.19
				c0.28-0.65,0.43-1.35,0.4-2.11c-0.22-5.31-4.41-8.53-9.06-10.08c-0.04,0.06-0.08,0.13-0.12,0.19c-0.66,0.98-1.31,2-1.96,3.04
				C466.26-379.5,467.54-375.44,469.17-371.84z M464.4-361.25c1.22,3.21,2.66,6.2,4.77,8.86c0.08,0.1,0.16,0.21,0.24,0.31
				c5.12-4.07,7.24-10.34,7.73-16.72c-1.81,1.46-3.99,2.6-6.21,3.56c-0.58,0.25-1.29,0.25-1.76-0.19c-0.1-0.1-0.19-0.2-0.27-0.34
				c-0.38-0.73-0.78-1.5-1.17-2.28C467.04-365.61,465.86-363.35,464.4-361.25z M464.43-383.99c0.23-0.8,0.56-1.58,0.99-2.34
				c-7.04,1.79-15.09,6.84-17.16,13.86C456.57-370.35,460.57-377.49,464.43-383.99z M465.28-371.45c0.03-0.38,0.12-0.68,0.33-0.91
				c-0.75-1.91-1.56-3.88-1.84-5.83c-3.12,4.66-6.44,8.65-12.36,9.09v0.01c0,5.32-0.35,10.5,1.49,15.5
				C458.19-358.44,464.64-364.11,465.28-371.45z M470.9-349.52c-0.31,0.24-0.62,0.49-0.96,0.72c-0.22,0.15-0.49,0.2-0.77,0.19
				c-0.39-0.01-0.78-0.15-1.02-0.42c-2.59-2.82-4.38-6.04-5.83-9.51c-1.41,1.67-2.96,3.25-4.53,4.77l0.01,0.02
				c1.25,6.22,5.28,10.37,9.45,14.71c0.75-1.39,1.38-2.8,1.92-4.23C469.93-345.29,470.5-347.35,470.9-349.52z M481.93-341.62
				c-3.13-1.95-5.81-4.41-8.16-7.32c-0.6,3.21-1.53,6.25-2.88,9.2c2.41,1.99,5.01,3.67,7.79,5.08c1.11-2.3,2.55-4.45,3.23-6.93
				L481.93-341.62z M492.12-339.75c-1.05-0.52-2.09-1.05-3.14-1.57c-0.09,0.39-0.18,0.79-0.27,1.18c-0.16,0.73-1.1,1.32-1.82,1.03
				c-0.81-0.32-1.58-0.67-2.34-1.04c-0.41,1.23-0.98,2.38-1.59,3.51c1.62,0.76,3.76,1.96,5.28,1.76
				C489.62-335.07,491.33-338.5,492.12-339.75z M499.61-352.63c-2.78-0.39-5.55-0.88-8.34-1.18c-0.19,3.21-0.86,6.35-1.6,9.53
				c2.07,1.04,4.14,2.07,6.21,3.11C497.78-344.75,499.22-348.57,499.61-352.63z M498.62-371.49c-1.84,0.56-3.86,0.92-5.9,1.04
				c1.76,3.63,2.81,7.39,2.62,11.51c-0.03,0.76-0.65,1.54-1.48,1.48c-0.88-0.07-1.75-0.17-2.62-0.28c0.03,0.33,0.02,0.65,0.04,0.98
				c3.55,0.38,7.06,1.05,10.61,1.46C502.77-360.44,502.24-367.8,498.62-371.49z"/>
		</g>
		<g>
			<path class="st3" d="M201.35-316.82c5.07,1.56,10.61,0.65,15.8,1.66c2.58,0.5,9.37,5.07,6.05,8.15c-3.85,3.58-7.59-4.09-8.1-6.51
				c-0.36-1.71-2.91-1.56-2.97-0.04c-7.5,9.67-3.72,20.28,7.82,24.02c11.39,3.69,22.98-1.83,28.74-11.97
				c5.78-10.18,6.89-23.6-0.18-33.45c-3.61-5.04-9.57-8.1-15.74-8.03c-6.42,0.08-10.3,5.55-11.94,11.11c-0.2,0.3-0.26,0.61-0.2,0.91
				c0,0.72,0.59,1.14,1.25,1.19c0.47,0.1,0.99-0.01,1.41-0.45c4.25-4.49,14.32,3.21,4.8,5.51c-5.79,1.4-10.33-6.52-13.34-10.2
				c-5.19-6.34-13.53-8.8-19.23-1.54C190.16-329.62,193.15-319.34,201.35-316.82z M199.42-336.33
				c11.64-10.46,18.75,22.32,32.9,13.12c7.44-4.84-0.76-12.36-7.47-11c5.31-10.3,19.04-4.71,23.56,4.95
				c3.8,8.11,2.08,18.04-1.95,25.68c-4.53,8.6-13.14,13.28-22.78,11.91c-4.24-0.6-8.4-2.66-11.07-6.04
				c-3.04-3.86-1.82-8.43,0.53-12.18c1.59,3.8,4.56,6.8,9.18,6.36c4.45-0.43,5.45-5.53,3.36-8.8c-4.06-6.34-10.89-6.24-17.71-6.53
				c-4.86-0.21-9.63-1.03-11.62-6.04C194.83-328.83,196.41-333.62,199.42-336.33z"/>
			<path class="st3" d="M428.53-147.21c5.07,1.56,10.61,0.65,15.8,1.66c2.58,0.5,9.37,5.07,6.05,8.15c-3.85,3.58-7.59-4.09-8.1-6.51
				c-0.36-1.71-2.91-1.56-2.97-0.04c-7.5,9.67-3.72,20.28,7.82,24.01c11.39,3.69,22.98-1.83,28.74-11.97
				c5.78-10.18,6.89-23.6-0.18-33.45c-3.61-5.04-9.57-8.1-15.74-8.03c-6.42,0.08-10.3,5.55-11.94,11.11c-0.2,0.3-0.26,0.61-0.2,0.91
				c0,0.72,0.59,1.14,1.25,1.19c0.47,0.1,0.99-0.01,1.41-0.45c4.25-4.49,14.32,3.21,4.8,5.51c-5.79,1.4-10.33-6.52-13.34-10.2
				c-5.19-6.34-13.53-8.8-19.23-1.54C417.33-160.01,420.32-149.73,428.53-147.21z M426.6-166.72c11.64-10.46,18.75,22.32,32.9,13.12
				c7.44-4.84-0.76-12.36-7.47-11c5.31-10.3,19.04-4.71,23.56,4.95c3.8,8.11,2.08,18.04-1.95,25.68
				c-4.53,8.6-13.14,13.28-22.78,11.91c-4.24-0.6-8.4-2.66-11.07-6.04c-3.04-3.86-1.82-8.43,0.53-12.18c1.59,3.8,4.56,6.8,9.18,6.36
				c4.45-0.43,5.45-5.53,3.36-8.8c-4.06-6.34-10.89-6.24-17.71-6.53c-4.86-0.21-9.63-1.03-11.62-6.04
				C422-159.22,423.58-164.01,426.6-166.72z"/>
			<path class="st3" d="M203.28-131.99c-6.14,0.84-11.64,4.67-14.45,10.17c-2.93,5.72,0.09,11.7,4.25,15.74
				c0.17,0.32,0.42,0.51,0.71,0.6c0.64,0.33,1.28,0.01,1.64-0.55c0.31-0.37,0.46-0.88,0.26-1.45c-1.98-5.85,9.52-11.16,7.12-1.67
				c-1.46,5.77-10.59,6.08-15.25,7.03c-8.03,1.63-14.1,7.85-10.34,16.28c3.53,7.93,14.02,10.09,20.08,4.02
				c3.75-3.76,5.53-9.08,8.85-13.19c1.65-2.04,8.86-5.91,10.03-1.54c1.36,5.07-7.16,4.8-9.54,4.12c-1.68-0.48-2.74,1.84-1.42,2.61
				c5.05,11.15,16.19,12.76,24.89,4.3c8.59-8.35,9.12-21.17,2.84-31C226.64-126.39,215.29-133.64,203.28-131.99z M229.96-89.84
				c-2.51,3.47-6.27,6.18-10.51,6.96c-4.84,0.89-8.31-2.33-10.52-6.16c4.1,0.37,8.14-0.85,9.91-5.15c1.7-4.14-2.35-7.4-6.21-7.08
				c-7.5,0.63-10.6,6.71-14.05,12.61c-2.45,4.2-5.41,8.03-10.77,7.45c-4.18-0.46-7.68-4.09-8.67-8.02
				c-3.81-15.18,28.49-6.15,26.97-22.96c-0.8-8.84-11.29-5.1-13.22,1.46c-6.62-9.51,4.73-19.04,15.38-18.52
				c8.94,0.43,16.92,6.59,21.8,13.72C235.56-107.53,235.67-97.73,229.96-89.84z"/>
			<g class="st1">
				<path class="st2" d="M94.81-265.62c0.06-0.17,0.09-0.34,0.14-0.51c5.66,1.23,11.36,2.25,17.11,2.97
					c1.21,0.15,2.16-1.55,1.23-2.44c-1.45-1.37-2.85-2.77-4.34-4.08c2.25-0.58,4.51-1.12,6.74-1.78c1.29-0.38,1.75-2.41,0.21-2.85
					c-2.96-0.84-5.83-1.92-8.7-2.99c3.79-2.4,7.74-4.42,11.94-6.09c1.33-0.53,0.94-2.88-0.54-2.81c-5.14,0.23-10.28,0.18-15.41,0.48
					c2.1-3.1,4.92-5.69,7.01-8.81c0.66-0.99-0.19-2.7-1.5-2.29c-4.08,1.25-7.59,3.71-11.52,5.25c0.05-1.87,0.47-3.61,1.06-5.46
					c0.33-1.04-0.45-1.81-1.28-1.93c-0.6-0.36-1.42-0.35-1.95,0.38c-2.78,3.86-6.45,7.59-7.89,12.23c-7.71-5.16-17.25-0.44-24,4.44
					c-5.4,3.9-9.84,9.32-14.42,14.1c-5.11,5.33-10.1,10.8-14.81,16.5c-0.93,1.13,0.37,2.37,1.5,2.29
					c14.87-0.97,30.08,1.75,44.46-3.31C86.13-254.54,92.54-259.14,94.81-265.62z M94.33-292.88c-0.11,1.18-0.12,2.37,0,3.63
					c0.07,0.74,1.01,1.39,1.74,1.17c2.94-0.9,5.59-2.43,8.32-3.8c-1.94,2.31-3.91,4.59-5.3,7.33c-0.56,1.11,0.72,2.03,1.68,1.94
					c3.51-0.32,7.04-0.39,10.56-0.46c-2.88,1.49-5.67,3.14-8.37,5c-0.96,0.66-0.5,2.17,0.47,2.52c2.26,0.82,4.5,1.68,6.76,2.48
					c-1.56,0.4-3.13,0.79-4.68,1.25c-1.21,0.36-1.66,1.87-0.56,2.67c1.02,0.74,1.96,1.56,2.88,2.41c-4.18-0.63-8.34-1.41-12.48-2.32
					c0-5.36-3.63-10.96-5.67-15.58C90.48-287.7,92.35-290.35,94.33-292.88z M38.38-252.09c7.06-8.29,14.68-16.07,22.3-23.84
					c5.91-6.04,17.53-13.64,25.56-7.41c0.31,0.24,0.63,0.32,0.93,0.3c2.46,5.47,6.59,11.49,4.47,17.55
					c-2.49,7.11-12.13,10.62-18.73,12.08C61.61-250.91,49.87-252.4,38.38-252.09z"/>
				<path class="st2" d="M78.37-279.69c-0.37-1.87-3.27-1.31-2.9,0.57c1.14,5.85,3.94,11.09,5.91,16.67c0.64,1.8,3.29,0.5,2.67-1.28
					C82.16-269.08,79.46-274.09,78.37-279.69z"/>
				<path class="st2" d="M70.8-272.55c-0.08-1.88-3.03-2.11-2.95-0.2c0.18,4.37,2.41,8.09,3.83,12.13c0.63,1.8,3.29,0.5,2.67-1.28
					C73.12-265.39,70.96-268.78,70.8-272.55z"/>
				<path class="st2" d="M62.07-267.97c-0.41-1.86-3.32-1.3-2.9,0.57c0.71,3.18,1.3,6.46,2.9,9.35c0.92,1.66,3.59,0.39,2.67-1.28
					C63.25-262.01,62.73-265.02,62.07-267.97z"/>
				<path class="st2" d="M53.55-261.54c-0.2-0.78-0.91-1.33-1.74-1.17c-0.76,0.15-1.37,0.95-1.17,1.74
					c0.34,1.34,0.73,2.66,1.32,3.91c0.81,1.73,3.48,0.44,2.67-1.28C54.15-259.37,53.84-260.44,53.55-261.54z"/>
			</g>
			<g class="st1">
				<path class="st2" d="M225.13-241.52c-0.95-8.68-9.41-11.74-13.35-18.64c-1.91-3.35-2.18-6.78-5.29-9.35
					c-2.96-2.45-6.45-3.56-9.18-6.43c-7.19-7.55-15.21-19.4-26.17-12.22c-0.64-0.14-1.38,0.08-1.74,0.83c-3.98,8.2,0,14.3,4.9,20.98
					c2.72,3.71,4.71,8.79,8.27,11.83c3.93,3.36,8.71,5.54,12.2,9.4c2.2,2.43,3.33,5.46,6.43,6.95c3.72,1.79,7.75,3.34,11.63,4.74
					C218.56-231.35,225.89-234.56,225.13-241.52z M201.82-241.2c-2.83-1.65-4.45-5.66-6.82-7.91c-2.1-2-4.69-3.44-7.1-5.02
					c-4.03-2.66-6.06-6.1-8.55-10.1c-4.21-6.76-10.79-12.37-7.78-20.6l0.12-0.08c9.8-7.67,17.29,4.29,23.34,10.85
					c3.4,3.69,9.43,5.2,11.8,9.51c1.47,2.67,2.08,5.58,3.85,8.15c2.01,2.91,5.27,5.12,7.71,7.62c2.21,2.27,3.84,5.09,3.8,8.34
					c-0.09,6.95-8.19,4.43-11.88,2.81C207.51-238.86,204.46-239.67,201.82-241.2z"/>
				<path class="st2" d="M183.34-271.25c-1.4,0.9-1.67-0.45-2.07-1.66c-0.46-1.4-0.65-2.94-1.37-4.24c-0.92-1.66-3.63-0.47-2.71,1.2
					c1.04,1.89,1.05,4.18,2.14,6.06c1.39,2.41,3.73,2.33,5.88,0.94C186.82-269.99,184.93-272.27,183.34-271.25z"/>
				<path class="st2" d="M193.37-262.38c-0.98,0.65-2.11,0.51-3.1-0.01c-0.72-0.37-1.65,0.16-1.91,0.85
					c-0.32,0.81,0.13,1.54,0.85,1.91c1.99,1.04,4.22,0.75,6.04-0.46c0.67-0.45,0.68-1.51,0.21-2.08
					C194.91-262.84,194.04-262.82,193.37-262.38z"/>
				<path class="st2" d="M202.95-261.91c-1.53-1.15-3.26,1.25-1.73,2.4c1.68,1.26,0.66,3.45-0.55,4.7
					c-1.31,1.35,0.54,3.66,1.87,2.29C205.1-255.16,206.35-259.37,202.95-261.91z"/>
				<path class="st2" d="M207.49-245.44c-1.9-0.14-2.24,2.8-0.33,2.94c1.08,0.08,1.8,0.73,2.46,1.54c1.19,1.49,3.48-0.38,2.29-1.87
					C210.8-244.22,209.31-245.31,207.49-245.44z"/>
			</g>
			<path class="st3" d="M127.49-336.75c0.69,10.77,7.3,26.76,18.98,29.32l0.07,0.01c0.35,0.3,0.84,0.42,1.4,0.17
				c11.5-5.07,19.47-14.77,21.44-27.06c15.49,6.62,7.22-27.7,6.43-34.1c-0.13-1.08-1.44-1.76-2.35-1.04
				c-3.44,2.7-6.23,6.07-9.48,8.96c-2.85-4.71-6.68-8.62-11.4-10.76c2.09-7.23,7.07-13.21,8.52-20.71c0.16-0.84-0.45-1.51-1.21-1.7
				c-10.15-2.6-23.26-0.73-32.03,5.09c-0.53,0.35-0.77,1.15-0.51,1.73c2.89,6.4,7.63,11.55,11.38,17.42c-5,3-7.94,7.94-9.58,13.5
				c-3.13-0.08-6.4-2.04-8.77-3.88c-0.85-0.66-2.24-0.23-2.39,0.9c-0.85,6.36,3.95,11.45,9.42,13.91
				C127.27-342.14,127.33-339.35,127.49-336.75z M147.32-310.22c-0.11-0.05-0.23-0.09-0.36-0.12c-7.73-1.7-12.81-10.77-15.13-18.99
				c0.09-0.02,0.18-0.05,0.27-0.09c10.1-4.53,23.63-7.37,32.4,1.25l0.21,0.17C161.6-320.13,155.24-313.85,147.32-310.22z
				 M165.74-331.06c-9.49-8.61-23.85-5.97-34.62-1.16c-0.24-1.16-0.42-2.28-0.54-3.34c0.41-0.07,0.8-0.31,1.05-0.78
				c1.98-3.78,5.28-5.6,8.97-2.6c0.89,0.72,2.17,0.18,2.39-0.9c1-4.85,6.67-3.89,8.79-0.55c0.53,0.83,1.76,0.75,2.34,0.06
				c3.52-4.11,10.61-0.2,12.15,4.05c0.09,0.24,0.22,0.43,0.37,0.57C166.46-334.12,166.16-332.57,165.74-331.06z M173.26-365.39
				c0.78,4.88,1.93,9.69,2.46,14.62c0.52,4.77,1.81,17.05-5.97,13.36c0.45-6.44-1.06-13.96-4.3-20.43
				C168.18-360.23,170.58-362.96,173.26-365.39z M141.11-367.38c1.08-0.54,1.04-1.86,0.42-2.52c0.04-0.32-0.01-0.66-0.23-1
				c-3.42-5.41-7.79-10.18-10.64-15.92c7.66-4.58,18.48-6.05,27.22-4.26c-1.8,7.07-6.56,12.94-8.41,20.03
				c-0.16,0.61,0.06,1.07,0.43,1.35c0.1,0.36,0.35,0.68,0.81,0.87c1.86,0.77,3.56,1.83,5.09,3.11c-2.56,0.26-4.81,1.28-7.01,2.8
				c-3.49-3.26-7.46-3.37-11.44-1.79C138.45-365.77,139.69-366.67,141.11-367.38z M133.7-359.66c0.3,0.02,0.62-0.05,0.93-0.26
				c4.25-2.85,8.89-4.72,12.82-0.2c0.52,0.6,1.39,0.84,2.07,0.32c2.58-1.97,5.11-3.35,8.46-3.03c0.25,0.02,0.47-0.01,0.67-0.08
				c2.08,2.45,3.77,5.35,5.06,8.44c-3.4-1.22-7.03-0.17-10.14,1.93c-3.52-3.49-9.02-3.82-11.7,0.1c-3.04-2.74-7.05-1.9-10.66,0.11
				C131.75-354.92,132.56-357.42,133.7-359.66z M130.57-348.48l0.25-0.14c3.2-2.23,7.44-4.46,10.17-0.25
				c0.77,1.19,2.34,0.49,2.65-0.63c1.37-4.85,6.46-2.89,8.5-0.19c0.47,0.63,1.42,0.82,2.07,0.32c2.78-2.17,6.55-4.01,9.94-1.58
				c0.3,0.22,0.61,0.3,0.91,0.29c0.98,3.24,1.56,6.56,1.71,9.71c-3.5-3.75-9.56-5.51-13.63-2.48c-3.6-3.81-10-3.57-12.36,1.07
				c-3.93-2.14-7.85-0.75-10.52,2.71C130.14-342.44,130.22-345.47,130.57-348.48z M121.02-355.76c2.26,1.41,4.81,2.51,7.4,2.76
				c-0.34,1.59-0.59,3.21-0.76,4.84C124.58-349.78,121.73-352.41,121.02-355.76z"/>
			<path class="st3" d="M144.52-373.2c-1.41-4.13-2.8-8.27-3.93-12.49c-0.49-1.84-3.25-0.75-2.76,1.07
				c1.13,4.22,2.52,8.36,3.93,12.49C142.38-370.32,145.14-371.39,144.52-373.2z"/>
			<path class="st3" d="M148.69-378.19c0-3.08,0.05-6.15,0.32-9.22c0.17-1.89-2.75-2.39-2.92-0.49c-0.3,3.33-0.35,6.67-0.35,10.02
				C145.75-375.98,148.7-376.3,148.69-378.19z"/>
			<path class="st3" d="M154.38-328.48c-0.52-0.22-0.99-0.14-1.35,0.1c-0.22-0.1-0.47-0.15-0.72-0.09c-2.1,0.48-3.83,1.71-3.88,4.03
				c-0.04,1.65,1.04,3.35,2.42,4.21c1.8,1.12,3.78,0.91,5.25-0.64C158.42-323.31,157.39-327.21,154.38-328.48z M153.74-322.69
				c-0.29,0.25-0.03,0.08-0.36,0.21l-0.03,0.01l-0.07,0.01l-0.19,0c-0.32-0.04-0.45-0.12-0.7-0.3c-0.43-0.31-0.46-0.37-0.79-0.9
				c0.15,0.25-0.11-0.28-0.15-0.37l-0.04-0.17c-0.02-0.1-0.03-0.2-0.03-0.3l0.04-0.2l0.05-0.13l0.12-0.19l0.03-0.04
				c0.11-0.09,0.24-0.17,0.36-0.25c-0.03,0.02,0.48-0.19,0.64-0.23c0.21-0.05,0.41-0.13,0.59-0.23c0.61,0.27,1.12,0.75,1.24,1.44
				C154.55-323.69,154.02-322.93,153.74-322.69z"/>
			<path class="st3" d="M343.82-149.03c-18.97-1.44-35.46-8.37-51.25-18.7c-4.05-2.65-8.04-5.39-10.96-9.3
				c-1.87-2.51-3.7-5.58-6.62-7c-3.35-1.63-6.44-1.16-9.14,0.47c0.57-7.45-3.23-14.48-5.5-21.37c-0.6-1.81-3.26-0.51-2.67,1.27
				c1.94,5.91,5.16,11.94,5.27,18.26c-4.12-7.5-10.19-13.72-14.72-21.01c-1-1.61-3.68-0.34-2.67,1.27
				c4.1,6.6,9.49,12.35,13.53,18.95c-1.42-1.15-2.98-2.16-4.44-3.11c-5.65-3.68-10.45-7.82-14.78-13.04
				c-1.22-1.47-3.47,0.45-2.25,1.92c3.29,3.96,7.02,8.04,11.29,10.96c3.09,2.12,7.42,4.06,10.01,7.09
				c-5.4-1.97-11.16-3.28-15.62-6.98c-1.47-1.22-3.12,1.24-1.66,2.45c5.48,4.54,12.68,5.44,18.99,8.35l-0.01,0.07
				c-0.05,15.5,16.2,24.43,28.75,29.45c7.67,3.06,15.8,4.93,24.04,5.47c10.24,0.68,20.51-1.26,30.61-2.57
				C345.7-146.32,345.47-148.91,343.82-149.03z M316.58-146.39c-7.89-0.03-15.65-1.7-23.09-4.24c-11.91-4.07-29.72-12.6-29.93-27.31
				c0.27-0.08,0.53-0.23,0.75-0.49c3.13-3.66,7.28-5.13,11.24-1.52c2.58,2.35,4.2,5.67,6.6,8.21c4.99,5.27,12.69,9.16,18.92,12.77
				c9.72,5.63,20.32,9.41,31.29,11.44C327.13-146.88,321.88-146.37,316.58-146.39z"/>
			<path class="st3" d="M227.19-426.72c-2.84,0.32-5.28,1.85-4.61,5.37c0.39,2.04,1.85,3.67,3.44,4.91c2.26,1.76,5.77,2.27,7.69,4.4
				c0.09,0.1,0.19,0.18,0.29,0.25c0.18,2.98,2.12,6.11,4.63,8.6c-3.81,0.82-7.58,0.77-11.59-1.81c-0.71-0.46-1.36-0.18-1.72,0.35
				c-0.55,0.06-1.07,0.39-1.3,1.02c-4.32-1.34-7.93-6.59-12.84-4.9c-3.77,1.3-3.96,4.68-2.41,7.5c-2.49,1.24-3.25,3.91-1.2,6.74
				c1.15,1.59,2.97,2.61,4.86,2.99c3.04,0.62,6.04-1.23,9.04-1.61c-0.01,0.89,0.67,1.5,1.57,1.52c7.16,0.2,12.97,6.12,18.5,11.08
				c-0.08,0.27-0.07,0.59,0.11,0.94c2.87,5.78,6.7,10.15,13.07,11.9c8.15,2.24,18.28-0.52,26.37-1.81
				c13.75-2.18,35.9-7.55,31.37-26.08c-3.66-14.98-16.28-28.9-31.78-31.42c-12.85-2.09-25.68,3.52-33.31,13.46
				c-0.34-0.27-0.8-0.38-1.33-0.2c-1.87,0.63-4.67-3.63-5.62-4.83c-0.21-0.27-0.55-0.52-0.92-0.61c-0.51-4.55-0.47-11.5-4.67-13.67
				c-0.88-0.46-1.71-0.69-2.47-0.76h-0.93C228.5-433.08,226.82-430,227.19-426.72z M221.97-395.91c-3.26,0.13-6.98,2.67-10.12,1.38
				c-2.18-0.9-3.95-3.8-0.58-4.2c1.35-0.16,1.74-1.67,0.85-2.6c-1.33-1.38-2.42-3.94,0.31-4.44c1.8-0.33,3.56,0.86,4.95,1.83
				c1.88,1.32,3.64,2.57,5.79,3.18C222.71-399.15,222.3-397.54,221.97-395.91z M271.57-423.82c0,0.1,0.02,0.2,0.04,0.31
				c0.95,4.03,1.51,8.27,0.61,12.36c-0.41,1.87,2.49,2.43,2.9,0.57c0.99-4.47,0.39-9.06-0.62-13.48c1.41-0.06,2.83-0.06,4.27,0.04
				c1.85,0.13,3.64,0.47,5.37,0.96l0.01,0.18c0.6,4.22,0.29,8.46-0.98,12.54c-0.57,1.82,2.35,2.37,2.9,0.57
				c1.22-3.93,1.59-8.1,1.16-12.2c3.56,1.5,6.81,3.73,9.7,6.41c-0.64,2.96-1.15,6.46-3.59,8.51c-1.45,1.22,0.22,3.67,1.68,2.44
				c2.62-2.2,3.63-5.27,4.38-8.45c4.07,4.48,7.24,9.87,9.28,15.26c2.57,6.77,1.63,13.5-4.42,17.95c-6.46,4.75-15.69,6.32-23.38,7.63
				c-6.73,1.14-13.74,2.33-20.57,2.43c-5.48,0.08-9.67-2.11-12.79-5.82c6.99,4.31,14.08,3.49,20.06-2.63
				c7.2-7.37,5.11-20.31-2.77-26.1c-4.28-3.15-10.17-3.19-15.13-2.03c-1.23,0.29-2.44,0.64-3.62,1.01
				C250.81-415.83,260.44-422.42,271.57-423.82z M254.48-404.09c7.85-0.67,13.55,5.1,14.42,12.52c0.73,6.16-2.64,11.57-7.74,14.68
				c-7.43,4.52-15.32-3.35-20.49-7.85c-4.7-4.08-9.73-8.51-16.01-9.41c0.48-2.61,1.14-5.15,1.89-7.69
				C236.04-396.41,244.47-403.24,254.48-404.09z M238.82-415.58c1.68,2.16,3.97,4.87,6.62,5.05c-1.15,1.85-2.14,3.81-2.92,5.88
				c-0.06,0.15-0.08,0.29-0.09,0.43c-0.13,0.04-0.26,0.08-0.39,0.12C238.59-406.96,234.21-412.39,238.82-415.58z M232.47-430.44
				c1.98,0.27,2.46,2.37,2.84,3.92c0.72,2.92,0.89,5.95,1.38,8.91c-0.96,0.78-1.64,1.63-2.08,2.54c-1.42-1-3.08-1.68-4.65-2.46
				c-2.74-1.36-7.64-6.83-1.21-6.33c1.07,0.08,2.1-0.8,1.68-1.95C229.76-427.65,229.53-430.83,232.47-430.44z"/>
			<path class="st3" d="M247.78-263.61c2.74,0.24,5.35-0.21,8.01-0.71c0.06,0.82,0.09,1.63,0.03,2.45
				c-4.58,5.05-5.7,10.87,1.06,14.56c0.77,0.42,1.58,0.78,2.41,1.1c0.99,5.82,3.93,9.81,9.79,11.79c8.07,2.73,18.22,1.83,26.6,1.9
				c13.6,0.12,38.15-0.12,36-19.29c4.62-3.52,6.09-8.85,0.93-13.16c4.52-0.86,8.73,0.23,13.09-2.31c1.04-0.6,0.87-1.92,0-2.56
				c-4.5-3.29-9.42-6.57-14.66-8.54c-0.48-0.18-0.89-0.1-1.19,0.12l-0.13-0.19c1.39-11.28-0.79-21.92-8.45-30.64
				c-6.86-7.81-17.57-11.84-27.83-11.27c-10.22,0.58-20.13,7-26.52,14.71c-6.79,8.19-9.26,18.88-10.22,29.24
				c-0.14-0.02-0.28-0.02-0.44,0.01c-4.82,0.79-9.48,6.67-9.97,11.29C246.21-264.24,247.05-263.67,247.78-263.61z M295.69-235.47
				c-6.44-0.01-12.93-0.21-19.34-0.68c-6.67-0.49-12.1-2.66-13.82-9.02c7.91,1.97,17.22,0.77,24.75,0.48
				c7.35-0.28,14.69-0.83,22.01-1.61c5.99-0.64,12.64-0.94,18.27-3.19c0.47-0.19,0.92-0.39,1.36-0.6
				C329.61-234.61,306.58-235.45,295.69-235.47z M327.55-252.73c-4.25,2.34-9.92,2.44-14.62,3.04c-9.12,1.17-18.3,1.76-27.49,2.11
				c-6.1,0.23-39.36,1.81-28.02-11.64l0.13-0.01c1.57-0.29,3.09-1.03,4.53-1.75c1.06,0.43,2.38,0.54,3.42,0.92
				c0.16,0.15,0.36,0.27,0.63,0.34c1.57,0.37,2.8,2,4.46,1.99c1.56-0.01,2.85-0.67,4.06-1.51c2.34,5.2,7.22,2.23,11.34-0.85
				c2.66,3.03,7.01,5.31,10.13,1.46c1.16-1.43,4.78,0.13,6.76-0.42c1.79-0.5,3.5-1.28,5.28-1.84c2-0.63,3.68,0.69,5.48,1.37
				c2.34,0.89,3.89,1.15,5.86-0.5c1.5-1.25,1.14-1.5,2.59-0.01c0.64,0.65,1.29,0.83,2.16,0.85c2.23,0.05,3.61-2.81,5.35-4.44
				c0.09,0.11,0.19,0.21,0.32,0.29C335.82-259.31,332.13-255.25,327.55-252.73z M265.38-297.02c1.11,0.66,2.15,1.5,3.06,2.39
				c1.36,1.34,3.46-0.75,2.09-2.09c-1.1-1.07-2.38-2.11-3.73-2.89c2.21-3.73,4.92-7.09,8.2-9.87c2.63,0.38,5.28,0.51,7.9,0.92
				c1.87,0.29,2.67-2.56,0.79-2.85c-1.76-0.28-3.53-0.43-5.29-0.61c3.72-2.43,8.03-4.21,12.98-5.12c1.74-0.32,3.5-0.45,5.26-0.4
				l-0.02,0.16c-0.03,1.82-0.46,3.6-0.49,5.43c-0.03,1.91,2.93,1.91,2.96,0c0.03-1.79,0.45-3.54,0.49-5.33
				c6.62,0.89,12.97,4.11,17.84,8.52c1.26,1.14,2.36,2.37,3.36,3.66c-0.1,0.09-0.19,0.18-0.28,0.3c-1.06,1.55-2.39,2.89-3.45,4.44
				c-1.08,1.58,1.48,3.06,2.56,1.49c0.89-1.3,1.97-2.46,2.92-3.72c4.36,7.12,5.42,15.87,4.24,24.28c-0.02,0.12-0.02,0.23-0.01,0.34
				c-9.37,5.6-21.63,6.47-32.23,6.72c-11.19,0.26-23.94-0.41-34.15-5.47c-0.22-0.11-0.44-0.16-0.65-0.17
				C260.44-283.96,262.28-290.91,265.38-297.02z M257.05-273.53c0.65-0.11,0.98-0.52,1.05-1c0.09-0.01,0.18-0.01,0.27-0.03
				c0.12,0.15,0.28,0.29,0.5,0.39c10.76,5.33,23.86,6.03,35.65,5.87c11.5-0.15,25.05-1.34,34.91-7.85l0.04-0.03
				c0.16,0.29,0.42,0.53,0.8,0.67c4.12,1.54,8.05,4.04,11.7,6.62c-5.41,1.55-12.23-0.61-15.85,4.39c-2.67,3.69-2.58-0.1-5.32-0.1
				c-0.67,0-1.43,0.48-1.88,0.93c-1.8,1.78-2.67,2.07-5.2,1c-4.97-2.11-7.4-0.4-12.43,1c-1.95,0.54-3.65-1.53-5.9-0.53
				c-0.68,0.3-1.53,1.72-1.92,2.2c-1.81,2.23-5.23-1.86-5.92-2.88c-0.41-0.6-1.35-1.05-2.02-0.53c-2.55,1.96-7.28,7.03-8.68,1.38
				c-0.29-1.19-1.65-1.3-2.47-0.65c-3.5,2.73-4,1.12-6.94,0.25l-0.04-0.03c-0.56-0.27-1.14-0.45-1.73-0.63
				c-0.87-0.27-3.17-1.47-2.28-0.28c-0.51-0.68-1.24-0.92-2.02-0.53c-0.84,0.42-1.7,0.85-2.58,1.2c0.01-1.11-0.06-2.22-0.13-3.38
				c-0.06-1.02-0.9-1.61-1.87-1.43c-2.4,0.44-4.74,0.94-7.15,0.98C250.72-269.6,254.12-273.05,257.05-273.53z"/>
			<path class="st3" d="M284.04-311.5c0.88,1.69,3.44,0.2,2.56-1.49c-0.72-1.38-1.79-2.61-2.32-4.09c-0.64-1.78-3.5-1.01-2.85,0.79
				C282.05-314.55,283.19-313.13,284.04-311.5z"/>
			<path class="st3" d="M292.02-325.33c-0.9-1.42-1.25-3.01-1.28-4.68c-0.03-1.91-2.99-1.91-2.96,0c0.03,2.17,0.51,4.32,1.68,6.17
				C290.48-322.23,293.04-323.71,292.02-325.33z"/>
			<path class="st3" d="M297.45-315.94c0.63-1.15,2.26-2.15,3.42-2.92c1.58-1.06,0.1-3.62-1.49-2.56c-1.58,1.06-3.54,2.27-4.48,3.98
				C293.97-315.76,296.53-314.27,297.45-315.94z"/>
			<path class="st3" d="M301.65-329.61c0.49,1.84,3.35,1.06,2.85-0.79c-0.52-1.94-1.51-3.63-2.62-5.29
				c-1.05-1.58-3.62-0.1-2.56,1.49C300.3-332.74,301.19-331.31,301.65-329.61z"/>
			<path class="st3" d="M310.47-318.17c0,0.99,2.96,0.99,2.96,0c0-1.97-0.06-3.51-0.55-5.08c-0.56-1.82-3.42-0.92-2.85,0.91
				C310.45-321.01,310.47-320.14,310.47-318.17z"/>
			<path class="st3" d="M315.41-330.99c1.68-0.04,3.25-0.51,4.83-1.04c1.8-0.6,1.03-3.46-0.79-2.85c-1.32,0.44-2.64,0.9-4.05,0.93
				C313.5-333.91,313.5-330.95,315.41-330.99z"/>
			<path class="st3" d="M322.06-318.86c1.61,1.05,3.33,1.91,4.93,2.96c1.6,1.05,3.08-1.52,1.49-2.56c-1.61-1.05-3.33-1.91-4.93-2.96
				C321.95-322.47,320.47-319.9,322.06-318.86z"/>
			<path class="st3" d="M84.5-353.29c-0.14,0.59-0.8,1.15-1.43,1.09c-0.18-0.02-0.36-0.05-0.55-0.06c-0.53,4.92-2.31,9.51-4.75,13.8
				c-0.42,0.73-1.31,0.89-2.02,0.53c-0.32-0.16-0.64-0.32-0.97-0.48c-1.34,1.96-3.11,5.72-5.67,6.36c-2.46,0.61-5.24-1.07-7.49-1.98
				c-0.29,0.59-0.56,1.18-0.8,1.8c-0.36,0.95-1.25,1.32-2.17,0.88c-3.28-1.54-6.3-3.45-9.11-5.69c-0.12,0.21-0.24,0.41-0.36,0.62
				c-0.11,0.2-0.22,0.4-0.34,0.59c-0.48,0.8-1.66,1.01-2.32,0.3c-4.63-4.89-9.35-9.35-11.19-15.89c-0.51,0.48-1.02,0.95-1.52,1.42
				c-0.64,0.6-1.91,0.6-2.32-0.3c-2.83-6.14-3.09-12.31-2.21-18.89c-0.99-0.15-2.04-0.42-3.15-0.82c-0.82-0.29-1.18-0.98-1.03-1.82
				c1.63-9.49,12.91-16.39,21.75-17.81c0.47-0.08,0.86,0.06,1.17,0.29c0.11-0.17,0.25-0.33,0.45-0.47c0.24-0.16,0.48-0.31,0.72-0.46
				c8.91-5.78,21.05-5.86,30.04-0.2c0.86,0.54,0.92,1.58,0.3,2.32c-1.47,1.75-3.26,3.12-5.25,4.18c4.01,1.69,7.21,5.09,8.92,9.18
				c0.25,0.6-0.16,1.37-0.68,1.67c-0.3,0.18-0.62,0.34-0.94,0.5C85.5-367.66,85.84-359.03,84.5-353.29z M69.7-382.12
				c-2.99,0.88-6.16,1.27-9.19,1.31c0.64,1.39,0.95,2.92,0.81,4.56c0.15,0.04,0.31,0.11,0.47,0.23c4.51,3.38,12.77,3.32,18.03,0.93
				C77.83-378.83,73.97-381.8,69.7-382.12z M72.38-360.57c-0.13-3.36-1.16-6.42-2.76-9.47c-0.08-0.15-0.12-0.29-0.15-0.43
				c-3.31-0.23-6.48-1.1-8.87-2.77c-0.11,0.27-0.26,0.52-0.39,0.78c0.05,3.19-0.26,6.39-0.99,9.44l0.24,0.02
				C63.76-362.12,68.01-361.05,72.38-360.57z M68.25-358.2c-3.21-0.56-6.38-1.3-9.58-1.96c-0.1-0.02-0.18-0.05-0.27-0.08
				c-0.92,2.63-2.23,5.08-3.98,7.25c3.08,4.49,6.9,8.11,11.82,10.39C67.47-347.76,68.94-352.85,68.25-358.2z M51.76-388.41
				c2.45,1.05,4.94,2.62,6.76,4.65l0.21-0.01c3.31,0.1,6.89-0.21,10.2-1.21l0.19-0.06c2.58-0.8,4.98-2.03,6.95-3.83
				C68.53-392.84,59.16-392.64,51.76-388.41z M49.17-371.84c0.55,1.2,1.13,2.36,1.68,3.42c2.23-1.01,4.93-2.41,6.4-4.4
				c0.01-0.58,0.3-0.98,0.7-1.19c0.28-0.65,0.43-1.35,0.4-2.11c-0.22-5.31-4.41-8.53-9.06-10.08c-0.04,0.06-0.08,0.13-0.12,0.19
				c-0.66,0.98-1.31,2-1.96,3.04C46.26-379.5,47.54-375.44,49.17-371.84z M44.4-361.25c1.22,3.21,2.66,6.2,4.77,8.86
				c0.08,0.1,0.16,0.21,0.24,0.31c5.12-4.07,7.24-10.34,7.73-16.72c-1.81,1.46-3.99,2.6-6.21,3.56c-0.58,0.25-1.29,0.25-1.76-0.19
				c-0.1-0.1-0.19-0.2-0.27-0.34c-0.38-0.73-0.78-1.5-1.17-2.28C47.04-365.61,45.86-363.35,44.4-361.25z M44.43-383.99
				c0.23-0.8,0.56-1.58,0.99-2.34c-7.04,1.79-15.09,6.84-17.16,13.86C36.57-370.35,40.57-377.49,44.43-383.99z M45.28-371.45
				c0.03-0.38,0.12-0.68,0.33-0.91c-0.75-1.91-1.56-3.88-1.84-5.83c-3.12,4.66-6.44,8.65-12.36,9.09v0.01
				c0,5.32-0.35,10.5,1.49,15.5C38.19-358.44,44.64-364.11,45.28-371.45z M50.9-349.52c-0.31,0.24-0.62,0.49-0.96,0.72
				c-0.22,0.15-0.49,0.2-0.77,0.19c-0.39-0.01-0.78-0.15-1.02-0.42c-2.59-2.82-4.38-6.04-5.83-9.51c-1.41,1.67-2.96,3.25-4.53,4.77
				l0.01,0.02c1.25,6.22,5.28,10.37,9.45,14.71c0.75-1.39,1.38-2.8,1.92-4.23C49.93-345.29,50.5-347.35,50.9-349.52z M61.93-341.62
				c-3.13-1.95-5.81-4.41-8.16-7.32c-0.6,3.21-1.53,6.25-2.88,9.2c2.41,1.99,5.01,3.67,7.79,5.08c1.11-2.3,2.55-4.45,3.23-6.93
				L61.93-341.62z M72.12-339.75c-1.05-0.52-2.09-1.05-3.14-1.57c-0.09,0.39-0.18,0.79-0.27,1.18c-0.16,0.73-1.1,1.32-1.82,1.03
				c-0.81-0.32-1.58-0.67-2.34-1.04c-0.41,1.23-0.98,2.38-1.59,3.51c1.62,0.76,3.76,1.96,5.28,1.76
				C69.62-335.07,71.33-338.5,72.12-339.75z M79.61-352.63c-2.78-0.39-5.55-0.88-8.34-1.18c-0.19,3.21-0.86,6.35-1.6,9.53
				c2.07,1.04,4.14,2.07,6.21,3.11C77.78-344.75,79.22-348.57,79.61-352.63z M78.62-371.49c-1.84,0.56-3.86,0.92-5.9,1.04
				c1.76,3.63,2.81,7.39,2.62,11.51c-0.03,0.76-0.65,1.54-1.48,1.48c-0.88-0.07-1.75-0.17-2.62-0.28c0.03,0.33,0.02,0.65,0.04,0.98
				c3.55,0.38,7.06,1.05,10.61,1.46C82.77-360.44,82.24-367.8,78.62-371.49z"/>
			<path class="st3" d="M455.19-287.1c-0.14,0.59-0.8,1.15-1.43,1.09c-0.18-0.02-0.36-0.05-0.55-0.06
				c-0.53,4.92-2.31,9.51-4.75,13.8c-0.42,0.73-1.31,0.89-2.02,0.53c-0.32-0.16-0.64-0.32-0.97-0.48c-1.34,1.96-3.11,5.72-5.67,6.36
				c-2.46,0.61-5.24-1.07-7.49-1.98c-0.29,0.59-0.56,1.18-0.8,1.8c-0.36,0.95-1.25,1.32-2.17,0.88c-3.28-1.54-6.3-3.45-9.11-5.69
				c-0.12,0.21-0.24,0.41-0.36,0.62c-0.11,0.2-0.22,0.4-0.34,0.59c-0.48,0.8-1.66,1.01-2.32,0.3c-4.63-4.89-9.35-9.35-11.19-15.89
				c-0.51,0.48-1.02,0.95-1.52,1.42c-0.64,0.6-1.91,0.6-2.32-0.3c-2.83-6.14-3.09-12.31-2.21-18.89c-0.99-0.15-2.04-0.42-3.15-0.82
				c-0.82-0.29-1.18-0.98-1.03-1.82c1.63-9.49,12.91-16.39,21.75-17.81c0.47-0.08,0.86,0.06,1.17,0.29
				c0.11-0.17,0.25-0.33,0.45-0.47c0.24-0.16,0.48-0.31,0.72-0.46c8.91-5.78,21.05-5.86,30.04-0.2c0.86,0.54,0.92,1.58,0.3,2.32
				c-1.47,1.75-3.26,3.12-5.25,4.18c4.01,1.69,7.21,5.09,8.92,9.18c0.25,0.6-0.16,1.37-0.68,1.67c-0.3,0.18-0.62,0.34-0.94,0.5
				C456.19-301.47,456.53-292.84,455.19-287.1z M440.39-315.93c-2.99,0.88-6.16,1.27-9.19,1.31c0.64,1.39,0.95,2.92,0.81,4.56
				c0.15,0.04,0.31,0.11,0.47,0.23c4.51,3.38,12.77,3.32,18.03,0.93C448.52-312.64,444.65-315.61,440.39-315.93z M443.07-294.38
				c-0.13-3.36-1.16-6.42-2.76-9.47c-0.08-0.15-0.12-0.29-0.15-0.43c-3.31-0.23-6.48-1.1-8.87-2.77c-0.11,0.27-0.26,0.52-0.39,0.78
				c0.05,3.19-0.26,6.39-0.99,9.44l0.24,0.02C434.45-295.93,438.7-294.86,443.07-294.38z M438.94-292.01
				c-3.21-0.56-6.38-1.3-9.58-1.96c-0.1-0.02-0.18-0.05-0.27-0.08c-0.92,2.63-2.23,5.08-3.98,7.25c3.08,4.49,6.9,8.11,11.82,10.39
				C438.16-281.57,439.62-286.66,438.94-292.01z M422.45-322.22c2.45,1.05,4.94,2.62,6.76,4.65l0.21-0.01
				c3.31,0.1,6.89-0.21,10.2-1.21l0.19-0.06c2.58-0.8,4.98-2.03,6.95-3.83C439.21-326.65,429.85-326.45,422.45-322.22z
				 M419.86-305.65c0.55,1.2,1.13,2.36,1.68,3.42c2.23-1.01,4.93-2.41,6.4-4.4c0.01-0.58,0.3-0.98,0.7-1.19
				c0.28-0.65,0.43-1.35,0.4-2.11c-0.22-5.31-4.41-8.53-9.06-10.08c-0.04,0.06-0.08,0.13-0.12,0.19c-0.66,0.98-1.31,2-1.96,3.04
				C416.95-313.31,418.23-309.25,419.86-305.65z M415.09-295.06c1.22,3.21,2.66,6.2,4.77,8.86c0.08,0.1,0.16,0.21,0.24,0.31
				c5.12-4.07,7.24-10.34,7.73-16.72c-1.81,1.46-3.99,2.6-6.21,3.56c-0.58,0.25-1.29,0.25-1.76-0.19c-0.1-0.1-0.19-0.2-0.27-0.34
				c-0.38-0.73-0.78-1.5-1.17-2.28C417.73-299.42,416.55-297.16,415.09-295.06z M415.12-317.8c0.23-0.8,0.56-1.58,0.99-2.34
				c-7.04,1.79-15.09,6.84-17.16,13.86C407.26-304.16,411.26-311.3,415.12-317.8z M415.97-305.26c0.03-0.38,0.12-0.68,0.33-0.91
				c-0.75-1.91-1.56-3.88-1.84-5.83c-3.12,4.66-6.44,8.65-12.36,9.09v0.01c0,5.32-0.35,10.5,1.49,15.5
				C408.87-292.25,415.32-297.92,415.97-305.26z M421.59-283.33c-0.31,0.24-0.62,0.49-0.96,0.72c-0.22,0.15-0.49,0.2-0.77,0.19
				c-0.39-0.01-0.78-0.15-1.02-0.42c-2.59-2.82-4.38-6.04-5.83-9.51c-1.41,1.67-2.96,3.25-4.53,4.77l0.01,0.02
				c1.25,6.22,5.28,10.37,9.45,14.71c0.75-1.39,1.38-2.8,1.92-4.23C420.62-279.09,421.19-281.16,421.59-283.33z M432.61-275.43
				c-3.13-1.95-5.81-4.41-8.16-7.32c-0.6,3.21-1.53,6.25-2.88,9.2c2.41,1.99,5.01,3.67,7.79,5.08c1.11-2.3,2.55-4.45,3.23-6.93
				L432.61-275.43z M442.81-273.56c-1.05-0.52-2.09-1.05-3.14-1.57c-0.09,0.39-0.18,0.79-0.27,1.18c-0.16,0.73-1.1,1.32-1.82,1.03
				c-0.81-0.32-1.58-0.67-2.34-1.04c-0.41,1.23-0.98,2.38-1.59,3.51c1.62,0.76,3.76,1.96,5.28,1.76
				C440.31-268.88,442.02-272.31,442.81-273.56z M450.3-286.44c-2.78-0.39-5.55-0.88-8.34-1.18c-0.19,3.21-0.86,6.35-1.6,9.53
				c2.07,1.04,4.14,2.07,6.21,3.11C448.47-278.56,449.91-282.38,450.3-286.44z M449.3-305.3c-1.84,0.56-3.86,0.92-5.9,1.04
				c1.76,3.63,2.81,7.39,2.62,11.51c-0.03,0.76-0.65,1.54-1.48,1.48c-0.88-0.07-1.75-0.17-2.62-0.28c0.03,0.33,0.02,0.65,0.04,0.98
				c3.55,0.38,7.06,1.05,10.61,1.46C453.46-294.25,452.93-301.61,449.3-305.3z"/>
			<path class="st3" d="M163.17-121.17c-1.57,9.62-8.48,14.66-18.15,13.24c-14.54-2.12-28.35-11.22-39.89-19.83
				c-10.36-7.73-18.68-16.9-26.2-27.41c-1.23-1.72-2.65-3.72-4.11-5.92c-6.98-10.49-14.85-25.45-7.03-35.63
				c1.75-2.27,4.2-3.98,7.03-5.15c11.41-4.72,28.92-0.54,30.8,12.22c0.07,0.45-0.05,0.82-0.28,1.09
				c10.42,3.47,18.31,12.44,23.15,23.11c11.29,2.66,21.34,8.71,21.63,21.13C158.81-140.25,164.95-132.07,163.17-121.17z
				 M133.06-143.97c-1.89,0.27-2.3-2.66-0.41-2.93c4.88-0.71,9.93-0.19,14.49,1.37c-0.25-3.27-1.37-5.98-3.09-8.25
				c-0.21,0.06-0.44,0.09-0.69,0.05c-6.33-0.92-12.8-1.42-18.59,1.82c-1.67,0.93-3.16-1.62-1.49-2.56
				c5.53-3.09,11.52-3.21,17.57-2.55c-8.18-6.42-22.44-7.6-31.63-7.29c-1.88,0.06-2.32-2.87-0.41-2.93
				c4.77-0.16,10.45,0.07,16.05,1.03c-1.21-2.41-2.59-4.72-4.13-6.86c-0.24,0-0.49-0.06-0.74-0.22c-5.2-3.18-13.87-4.64-19.56-1.97
				c-1.72,0.8-3.22-1.75-1.49-2.56c5.06-2.37,11.83-2.18,17.51-0.31c-6.31-6.32-14.55-10.07-24.54-8.79
				c-1.89,0.24-2.31-2.69-0.41-2.93c3.96-0.51,7.69-0.29,11.16,0.52c-1.45-9.39-13.97-12.3-21.97-11.16
				c-2.33,0.33-4.27,0.9-5.89,1.65c-11.42,5.35-6.28,20.42,0,31.75c1.98,3.57,4.07,6.77,5.79,9.18
				c7.77,10.86,16.19,20.41,26.99,28.28c6.6,4.81,13.52,9.33,20.87,12.93c6.23,3.05,13.7,6.53,20.84,6.04
				c7.26-0.5,10.71-5.78,11.15-12.75C161.39-138.17,146.23-145.88,133.06-143.97z"/>
			<g class="st1">
				<path class="st2" d="M377.14-379.94c5.34-0.4,7.44-6.6,6.54-11.08c0.05-0.27,0-0.58-0.21-0.9c-2.34-3.69-6.25-6.38-10.74-4.86
					c-3.69,1.24-5.98,4.67-5.73,8.53C367.31-383.44,372.58-379.6,377.14-379.94z M373.6-393.97c2.88-1.16,5.63,0.93,7.13,3.23
					l0.02,0.19c0.67,3.25-0.42,7.07-4.12,7.69c-3.22,0.54-6.74-3.23-6.73-6.31C369.91-391.44,371.62-393.17,373.6-393.97z"/>
				<path class="st2" d="M401.76-371.41c-10.15,9.86-23.06,13.81-36.51,16.7c0.13,0.48,0.02,1.01-0.48,1.42
					c-2.47,2.04-5.64,2.28-8.11,0.1c-1.21-1.07-2.13-2.57-2.56-4.18c-0.38-0.08-0.72-0.33-0.89-0.84
					c-3.03-9.08-3.34-18.69-4.86-28.08c-0.65,0.03-1.37-0.41-1.61-1.09c-1.09-0.63-2.05-1.4-2.68-2.56
					c-1.76-3.2-0.85-6.83,1.64-9.31c-0.05-0.16-0.09-0.32-0.1-0.51c-0.04-2.36-0.44-4.6-1.33-6.75c-0.68-0.22-1.31-0.52-1.86-1.06
					c-0.98-0.96-2.17-1.91-2.82-3.14c-0.16-0.31-0.3-0.63-0.39-0.97c-0.29-1.2,1.07-2.18,1.42-3.16c0.58-1.59,1.23-2.65,2.92-3.19
					c2.16-0.7-1.08-3.1-2.21-3.5c-2.17-0.76-5.91-1.21-4.86-4.54c1.61-5.06,5.35-3.39,9.19-5.77c0.47-0.29,1.05-0.11,1.48,0.13
					c10.14,5.7,18.82,13.28,27.39,21h0c7.3,6.58,14.52,13.27,22.49,19.01c0.23,0.17,0.38,0.36,0.48,0.57
					c0.25,0.05,0.48,0.17,0.69,0.33c4.39-0.35,6.05,3.25,7.36,7.36C406.97-379.01,404.95-374.51,401.76-371.41z M360.2-410.71
					L360.2-410.71c0.11,0.09,0.21,0.18,0.33,0.27c2.76,2.05,6.17,2.21,8.99,0.18c0.33-0.23,0.67-0.31,1-0.28
					c-0.06-0.06-0.13-0.12-0.19-0.17h0c-3.29-2.95-6.62-5.85-10.07-8.58C358.02-416.7,357.4-413.09,360.2-410.71z M351.93-394.11
					c2.42-0.15,4.54,1.07,6.18,2.77c2.89,2.98,4.9,9.21-0.63,10.45c1.61,5.1,1.38,10.97,3.25,15.99
					c15.34-1.64,26.08-12.37,34.53-24.43c-8.29-5.97-15.71-13.03-23.29-19.89c0.07,0.43-0.08,0.89-0.56,1.23
					c-4.06,2.91-9.58,2.92-13.3-0.64c-0.68-0.65-1.22-1.35-1.65-2.08l0,0c-1.9-3.28-1.3-7.24,1.39-10.33l0.07-0.06
					c-1.84-1.39-3.72-2.74-5.66-4.02c-0.89-0.59-4.99-3.99-6-3.65c-1.17,0.4-2.32,0.65-3.53,0.93c-1.11,0.25-4.94,2.35-2.63,2.89
					c1.07,0.25,2.02,0.51,3,1.03c1.97,1.04,7.93,4.28,4.17,7.29c-1.34,1.08-3,1.11-3.88,2.83c-0.38,0.74-0.8,1.36-1.24,2.06
					c-0.13,0.22,0.38,0.61,1.15,1.03c0.68,0.37,1.55,0.77,2.35,1.09l0.14,0.06c0.8,0.32,1.52,0.55,1.86,0.59
					c0.77,0.1,1.56,0.19,2.25,0.57c4.34,2.41,1.91,7.37-0.76,9.91c-2.81,2.68-3.78,5.58-1.53,7.76
					C348.5-392.47,349.89-393.98,351.93-394.11z M348.41-401.88c0.21-0.26,0.4-0.53,0.55-0.81c1.31-2.46,0.03-3.08-1.36-3.29
					C348.01-404.64,348.27-403.28,348.41-401.88z M350.11-389.15c1.7,0.79,3.57,1.66,4.75,3.14c0.6,0.76,1.1,1.56,1.53,2.39
					c0.12-0.06,0.25-0.11,0.4-0.14c1.3-0.25,1.54-0.9,1.25-2.09c-0.35-1.43-1.3-2.75-2.36-3.75c-0.85-0.8-2.25-1.77-3.44-1.57
					C351.2-390.99,350.55-390.13,350.11-389.15z M357.7-364.72c-1.8-5.91-1.07-12.83-4.19-18.08c-0.51-0.85-1.18-1.49-1.94-2.02
					c1.05,7.34,1.48,14.85,3.35,22.03C355.62-363.73,356.61-364.45,357.7-364.72z M362.29-355.16c-0.08-0.14-0.15-0.3-0.18-0.48
					c-0.35-1.85-1.04-3.98-2.32-5.4c-1.25-1.39-2.86-0.52-2.99,1.27C356.57-356.64,359.41-353.46,362.29-355.16z M401.24-375.32
					c1.88-2.81,2.77-13.56-3.45-12.45c-8.63,12.36-19.73,23.4-35.14,25.61c0.96,1.35,1.61,2.95,2.04,4.54
					c8.47-1.79,17.05-3.71,24.58-8.17C393.32-368.19,398.54-371.26,401.24-375.32z"/>
				<path class="st2" d="M401.76-371.41c-10.15,9.86-23.06,13.81-36.51,16.7c0.13,0.48,0.02,1.01-0.48,1.42
					c-2.47,2.04-5.64,2.28-8.11,0.1c-1.21-1.07-2.13-2.57-2.56-4.18c-0.38-0.08-0.72-0.33-0.89-0.84
					c-3.03-9.08-3.34-18.69-4.86-28.08c-0.65,0.03-1.37-0.41-1.61-1.09c-1.09-0.63-2.05-1.4-2.68-2.56
					c-1.76-3.2-0.85-6.83,1.64-9.31c-0.05-0.16-0.09-0.32-0.1-0.51c-0.04-2.36-0.44-4.6-1.33-6.75c-0.68-0.22-1.31-0.52-1.86-1.06
					c-0.98-0.96-2.17-1.91-2.82-3.14c-0.16-0.31-0.3-0.63-0.39-0.97c-0.29-1.2,1.07-2.18,1.42-3.16c0.58-1.59,1.23-2.65,2.92-3.19
					c2.16-0.7-1.08-3.1-2.21-3.5c-2.17-0.76-5.91-1.21-4.86-4.54c1.61-5.06,5.35-3.39,9.19-5.77c0.47-0.29,1.05-0.11,1.48,0.13
					c10.14,5.7,18.82,13.28,27.39,21h0c7.3,6.58,14.52,13.27,22.49,19.01c0.23,0.17,0.38,0.36,0.48,0.57
					c0.25,0.05,0.48,0.17,0.69,0.33c4.39-0.35,6.05,3.25,7.36,7.36C406.97-379.01,404.95-374.51,401.76-371.41z M360.2-410.71
					L360.2-410.71c0.11,0.09,0.21,0.18,0.33,0.27c2.76,2.05,6.17,2.21,8.99,0.18c0.33-0.23,0.67-0.31,1-0.28
					c-0.06-0.06-0.13-0.12-0.19-0.17h0c-3.29-2.95-6.62-5.85-10.07-8.58C358.02-416.7,357.4-413.09,360.2-410.71z M351.93-394.11
					c2.42-0.15,4.54,1.07,6.18,2.77c2.89,2.98,4.9,9.21-0.63,10.45c1.61,5.1,1.38,10.97,3.25,15.99
					c15.34-1.64,26.08-12.37,34.53-24.43c-8.29-5.97-15.71-13.03-23.29-19.89c0.07,0.43-0.08,0.89-0.56,1.23
					c-4.06,2.91-9.58,2.92-13.3-0.64c-0.68-0.65-1.22-1.35-1.65-2.08l0,0c-1.9-3.28-1.3-7.24,1.39-10.33l0.07-0.06
					c-1.84-1.39-3.72-2.74-5.66-4.02c-0.89-0.59-4.99-3.99-6-3.65c-1.17,0.4-2.32,0.65-3.53,0.93c-1.11,0.25-4.94,2.35-2.63,2.89
					c1.07,0.25,2.02,0.51,3,1.03c1.97,1.04,7.93,4.28,4.17,7.29c-1.34,1.08-3,1.11-3.88,2.83c-0.38,0.74-0.8,1.36-1.24,2.06
					c-0.13,0.22,0.38,0.61,1.15,1.03c0.68,0.37,1.55,0.77,2.35,1.09l0.14,0.06c0.8,0.32,1.52,0.55,1.86,0.59
					c0.77,0.1,1.56,0.19,2.25,0.57c4.34,2.41,1.91,7.37-0.76,9.91c-2.81,2.68-3.78,5.58-1.53,7.76
					C348.5-392.47,349.89-393.98,351.93-394.11z M348.41-401.88c0.21-0.26,0.4-0.53,0.55-0.81c1.31-2.46,0.03-3.08-1.36-3.29
					C348.01-404.64,348.27-403.28,348.41-401.88z M350.11-389.15c1.7,0.79,3.57,1.66,4.75,3.14c0.6,0.76,1.1,1.56,1.53,2.39
					c0.12-0.06,0.25-0.11,0.4-0.14c1.3-0.25,1.54-0.9,1.25-2.09c-0.35-1.43-1.3-2.75-2.36-3.75c-0.85-0.8-2.25-1.77-3.44-1.57
					C351.2-390.99,350.55-390.13,350.11-389.15z M357.7-364.72c-1.8-5.91-1.07-12.83-4.19-18.08c-0.51-0.85-1.18-1.49-1.94-2.02
					c1.05,7.34,1.48,14.85,3.35,22.03C355.62-363.73,356.61-364.45,357.7-364.72z M362.29-355.16c-0.08-0.14-0.15-0.3-0.18-0.48
					c-0.35-1.85-1.04-3.98-2.32-5.4c-1.25-1.39-2.86-0.52-2.99,1.27C356.57-356.64,359.41-353.46,362.29-355.16z M401.24-375.32
					c1.88-2.81,2.77-13.56-3.45-12.45c-8.63,12.36-19.73,23.4-35.14,25.61c0.96,1.35,1.61,2.95,2.04,4.54
					c8.47-1.79,17.05-3.71,24.58-8.17C393.32-368.19,398.54-371.26,401.24-375.32z"/>
			</g>
			<g class="st1">
				<path class="st2" d="M301.07-102.33c-0.25-3.86,2.04-7.29,5.73-8.53c4.49-1.52,8.4,1.18,10.74,4.86c0.2,0.32,0.26,0.62,0.21,0.9
					c0.9,4.48-1.2,10.67-6.54,11.08C306.65-93.68,301.39-97.52,301.07-102.33z M303.98-103.25c-0.01,3.08,3.52,6.85,6.73,6.31
					c3.69-0.62,4.78-4.44,4.12-7.69l-0.02-0.19c-1.5-2.3-4.25-4.39-7.13-3.23C305.69-107.25,303.98-105.52,303.98-103.25z"/>
				<path class="st2" d="M335.83-85.49c-10.15,9.86-23.06,13.81-36.51,16.7c0.13,0.48,0.02,1.01-0.48,1.42
					c-2.47,2.04-5.64,2.28-8.11,0.1c-1.21-1.07-2.13-2.57-2.56-4.18c-0.38-0.08-0.72-0.33-0.89-0.84
					c-3.03-9.08-3.34-18.69-4.86-28.08c-0.65,0.03-1.37-0.41-1.61-1.09c-1.09-0.63-2.05-1.4-2.68-2.56
					c-1.76-3.2-0.85-6.83,1.64-9.31c-0.05-0.16-0.09-0.32-0.1-0.51c-0.04-2.36-0.44-4.6-1.33-6.75c-0.68-0.22-1.31-0.52-1.86-1.06
					c-0.98-0.96-2.17-1.91-2.82-3.14c-0.16-0.31-0.3-0.63-0.39-0.97c-0.29-1.2,1.07-2.18,1.42-3.16c0.58-1.59,1.23-2.65,2.92-3.19
					c2.16-0.7-1.08-3.1-2.21-3.5c-2.17-0.76-5.91-1.21-4.86-4.54c1.61-5.06,5.35-3.39,9.19-5.77c0.47-0.29,1.05-0.11,1.48,0.13
					c10.14,5.7,18.82,13.28,27.39,21h0c7.3,6.58,14.52,13.27,22.49,19.01c0.23,0.17,0.38,0.36,0.48,0.57
					c0.25,0.05,0.48,0.17,0.69,0.33c4.39-0.35,6.05,3.25,7.36,7.36C341.05-93.09,339.02-88.59,335.83-85.49z M294.27-124.79
					L294.27-124.79c0.11,0.09,0.21,0.18,0.33,0.27c2.76,2.05,6.17,2.21,8.99,0.18c0.33-0.23,0.67-0.31,1-0.28
					c-0.06-0.06-0.13-0.12-0.19-0.17h0c-3.29-2.95-6.62-5.85-10.07-8.58C292.09-130.78,291.47-127.17,294.27-124.79z M286-108.19
					c2.42-0.15,4.54,1.07,6.18,2.77c2.89,2.98,4.9,9.21-0.63,10.45c1.61,5.1,1.38,10.97,3.25,15.99
					c15.34-1.64,26.08-12.37,34.53-24.43c-8.29-5.97-15.71-13.03-23.29-19.89c0.07,0.43-0.08,0.89-0.56,1.23
					c-4.06,2.91-9.58,2.92-13.3-0.64c-0.68-0.65-1.22-1.35-1.65-2.08c-1.9-3.28-1.3-7.24,1.39-10.33l0.07-0.06
					c-1.84-1.39-3.72-2.74-5.66-4.02c-0.89-0.59-4.99-3.99-6-3.65c-1.17,0.4-2.32,0.65-3.53,0.93c-1.11,0.25-4.94,2.35-2.63,2.89
					c1.07,0.25,2.02,0.51,3,1.03c1.97,1.04,7.93,4.28,4.17,7.29c-1.34,1.08-3,1.11-3.88,2.83c-0.38,0.74-0.8,1.36-1.24,2.06
					c-0.13,0.22,0.38,0.61,1.15,1.03c0.68,0.37,1.55,0.77,2.35,1.09l0.14,0.06c0.8,0.32,1.52,0.55,1.86,0.59
					c0.77,0.1,1.56,0.19,2.25,0.57c4.34,2.41,1.91,7.37-0.76,9.91c-2.81,2.68-3.78,5.58-1.53,7.76
					C282.58-106.55,283.96-108.06,286-108.19z M282.48-115.96c0.21-0.26,0.4-0.53,0.55-0.81c1.31-2.46,0.03-3.08-1.36-3.29
					C282.08-118.72,282.34-117.36,282.48-115.96z M284.19-103.23c1.7,0.79,3.57,1.66,4.75,3.14c0.6,0.76,1.1,1.56,1.53,2.39
					c0.12-0.06,0.25-0.11,0.4-0.14c1.3-0.25,1.54-0.9,1.25-2.09c-0.35-1.43-1.3-2.75-2.36-3.75c-0.85-0.8-2.25-1.77-3.44-1.57
					C285.27-105.07,284.62-104.21,284.19-103.23z M291.77-78.8c-1.8-5.91-1.07-12.83-4.19-18.08c-0.51-0.85-1.18-1.49-1.94-2.02
					c1.05,7.34,1.48,14.85,3.35,22.03C289.69-77.81,290.69-78.53,291.77-78.8z M296.36-69.24c-0.08-0.14-0.15-0.3-0.18-0.48
					c-0.35-1.85-1.04-3.98-2.32-5.4c-1.25-1.39-2.86-0.52-2.99,1.27C290.64-70.72,293.48-67.54,296.36-69.24z M335.31-89.4
					c1.88-2.81,2.77-13.56-3.45-12.45c-8.63,12.36-19.73,23.4-35.14,25.61c0.96,1.35,1.61,2.95,2.04,4.54
					c8.47-1.79,17.05-3.71,24.58-8.17C327.39-82.27,332.61-85.34,335.31-89.4z"/>
			</g>
			<g class="st1">
				<path class="st2" d="M81.41-500.91c0.85-0.25,1.87-0.2,3.09,0.25c7.59,2.85,5.06,15.22,8.85,20.66c0.18,0.26,0.26,0.53,0.28,0.8
					c0.53-0.4,1.07-0.81,1.59-1.23c1.05-0.83,2.35,0.02,2.49,1.01c5.18,2.87,8.95,7.34,14.39,9.44l0.13-0.05
					c0.72-0.25,1.24,0.07,1.5,0.58c0.81,0.23,1.65,0.4,2.54,0.51c7.38,0.87,14.81,0.33,21.78,3.38c8.55,3.74,14.9,10,19.01,17.91
					c0.74,1.43,1.42,2.92,2.02,4.45c1.68,2.87,2.41,6.35,1.92,9.56c-2.02,13.24-15.79,22.93-27.09,28.11
					c-9,4.12-23.55,8.98-32.4,2.06l0,0c-0.66-0.52-1.3-1.09-1.89-1.75c-0.17-0.18-0.26-0.37-0.31-0.57l-0.08-0.05
					c-8.18-6.83-10.99-17.29-11.09-27.61l0,0c-0.01-1.27,0.01-2.54,0.08-3.79c0.28-5.22,2.2-13.17,2.16-20.25l0-0.02
					c-0.02-3.48-0.53-6.74-1.93-9.38l0,0c-0.85-1.59-2.02-2.95-3.62-3.98c-1.05-0.67-0.72-1.95,0.08-2.48
					c-0.05-0.51,0.18-1,0.83-1.24l0.07-0.03c-5.3-7.43-16.54-7.76-21.04-15.95c-0.38-0.69-0.07-1.66,0.64-1.99
					c4.04-1.9,7.96-1.34,12.18-0.95C77.74-496.57,78.77-500.15,81.41-500.91L81.41-500.91z M138.65-443.86
					c-2.67,1.16-5.21,2.62-7.56,4.07c-5.76,3.56-11.26,7.71-16.11,12.45c-5.98,5.83-9.47,12.76-13.16,20.15
					c7.62,8.37,23.28,2.71,31.62-1.4c9.48-4.68,23.35-13.48,24.6-25.24c0.16-1.51,0.05-3.1-0.31-4.62
					c-0.14-0.16-0.26-0.35-0.33-0.59c-0.26-0.86-0.54-1.7-0.86-2.55c-1.35-2.46-3.56-4.3-6.65-4.58c-0.14-0.01-0.28-0.04-0.43-0.05
					C145.78-446.38,142.11-445.37,138.65-443.86z M95.77-477.12c-2.47,1.89-5.03,3.66-7.92,4.84c6.44,5.56,5.45,16.28,4.45,24.19
					l0,0.01c-0.06,0.47-0.12,0.94-0.18,1.39c-0.52,4.02-0.94,8.32-0.97,12.61l0,0c-0.04,9.14,1.75,18.26,8.48,24.68
					c0.15-0.3,0.3-0.6,0.45-0.9l0,0c4.18-8.22,8.49-15.52,15.58-21.72c4.01-3.51,8.33-6.9,12.92-9.78c2.53-1.59,5.14-3.03,7.84-4.23
					c4.87-2.17,11.48-4.58,16.81-2.43c-1.81-3.01-4.01-5.78-6.55-8.16l-0.23-0.03c-11.39-2.79-23.25,4.7-30.58,12.85
					c-1.28,1.42-3.24-0.8-1.98-2.2c7.01-7.8,17.59-14.43,28.36-14.13c-3.28-2.18-6.94-3.77-10.92-4.53c-0.19,0.2-0.45,0.36-0.8,0.42
					c-12.1,2.21-23.73,10.08-29.05,21.36c-0.8,1.7-3.62,0.78-2.8-0.95c4.78-10.13,14-17.79,24.53-21.5
					c-3.86-0.12-7.85-0.26-11.42-1.39c-3.87,1.66-6.88,4.77-10.24,7.24c-1.53,1.12-3.52-1.07-1.98-2.2c2.99-2.2,5.68-4.68,8.81-6.54
					C103.87-470.76,100.41-474.81,95.77-477.12z M82.02-497.97L82.02-497.97c-1.87,0.8-1.57,4.7-1.52,6.17
					c0.03,0.8-0.83,1.43-1.57,1.38c-3.61-0.26-7.15-1.09-10.61-0.09c2.66,3.38,7.19,4.97,10.89,6.95c2.51,1.35,4.81,2.82,6.76,4.71
					l0,0c0.93,0.9,1.79,1.88,2.55,3.01c1.03-0.55,2.03-1.16,2.99-1.82c-0.13-0.09-0.25-0.2-0.36-0.36c-3.06-4.39-2.78-8.54-4-13.54
					c-0.44-1.82-1.78-6.65-4.46-6.56C82.43-498.12,82.22-498.06,82.02-497.97z"/>
				<path class="st2" d="M138.67-430.97c4.89,2.44,3.24,7.31-0.38,10.06c-3.21,2.44-7.71,4.87-11.96,4.74
					c-0.43,0.27-0.98,0.34-1.54,0.01c-0.14-0.08-0.25-0.18-0.38-0.26c-0.36-0.11-0.6-0.32-0.74-0.58
					C117.31-422.8,132.16-434.21,138.67-430.97z M125.79-419.13c3.92,0.35,17.19-6.4,11.6-9.19
					C133.6-430.21,122.65-422.5,125.79-419.13z"/>
			</g>
			<g class="st1">
				<path class="st2" d="M448.12-35.25c-0.74,0.49-1.73,0.75-3.02,0.67c-8.1-0.48-9.34-13.04-14.56-17.12
					c-0.25-0.2-0.41-0.43-0.51-0.68c-0.39,0.54-0.78,1.09-1.16,1.64c-0.76,1.1-2.25,0.67-2.68-0.22
					c-5.79-1.21-10.72-4.36-16.53-4.76l-0.11,0.09c-0.62,0.45-1.21,0.3-1.61-0.11c-0.84,0.02-1.7,0.1-2.58,0.27
					c-7.31,1.35-14.24,4.06-21.8,3.2c-9.27-1.05-17.19-5.15-23.45-11.49c-1.13-1.15-2.22-2.36-3.24-3.66
					c-2.45-2.24-4.18-5.36-4.66-8.57c-1.98-13.25,8.31-26.57,17.58-34.86c7.38-6.6,19.84-15.53,30.35-11.54l0,0
					c0.78,0.3,1.56,0.66,2.32,1.11c0.21,0.13,0.35,0.28,0.47,0.45l0.09,0.03c9.83,4.1,15.61,13.27,18.75,23.1l0,0
					c0.39,1.21,0.74,2.43,1.05,3.65c1.28,5.07,1.79,13.23,3.92,19.98l0.01,0.02c1.05,3.32,2.5,6.29,4.62,8.39l0,0
					c1.28,1.27,2.8,2.22,4.64,2.73c1.2,0.33,1.26,1.65,0.66,2.39c0.2,0.47,0.13,1.01-0.42,1.43l-0.06,0.05
					c7.26,5.54,18.1,2.52,24.82,9.02c0.57,0.55,0.56,1.56-0.03,2.09c-3.3,3.01-7.21,3.63-11.36,4.5
					C450.34-40.49,450.42-36.77,448.12-35.25L448.12-35.25z M376.58-72.84c2.2-1.9,4.21-4.04,6.02-6.13
					c4.45-5.11,8.48-10.69,11.72-16.65c3.99-7.34,5.27-14.99,6.62-23.14c-9.75-5.75-23.04,4.29-29.8,10.68
					c-7.68,7.27-18.32,19.78-16.04,31.38c0.29,1.49,0.87,2.97,1.66,4.32c0.18,0.11,0.35,0.26,0.49,0.47
					c0.5,0.74,1.02,1.47,1.57,2.18c2.01,1.96,4.68,3.06,7.7,2.41c0.14-0.03,0.28-0.04,0.42-0.08
					C370.52-68.33,373.72-70.38,376.58-72.84z M427.37-53.74c1.8-2.54,3.73-4.98,6.14-6.97c-7.8-3.41-10.01-13.94-11.4-21.79
					l-0.01-0.01c-0.08-0.47-0.16-0.93-0.24-1.38c-0.69-3.99-1.55-8.22-2.8-12.34l0,0c-2.66-8.74-7.07-16.93-15.39-21.07
					c-0.06,0.33-0.11,0.66-0.17,0.99l0,0c-1.57,9.09-3.53,17.34-8.47,25.35c-2.8,4.54-5.92,9.05-9.45,13.16
					c-1.95,2.27-4.02,4.41-6.24,6.36c-4.01,3.51-9.62,7.76-15.34,7.29c2.62,2.34,5.54,4.33,8.67,5.86l0.23-0.04
					c11.7-0.7,20.82-11.36,25.42-21.31c0.8-1.74,3.33-0.19,2.54,1.52c-4.4,9.52-12.54,18.98-22.92,21.88
					c3.77,1.12,7.74,1.55,11.77,1.1c0.12-0.25,0.32-0.47,0.64-0.64c10.91-5.69,19.69-16.64,21.44-28.98
					c0.27-1.87,3.23-1.81,2.96,0.08c-1.57,11.09-8.12,21.13-17.08,27.79c3.73-1.02,7.57-2.07,11.32-2.05
					c3.2-2.73,5.17-6.59,7.65-9.94c1.13-1.52,3.68-0.01,2.54,1.52c-2.21,2.99-4.05,6.15-6.49,8.85
					C417.75-57.42,422.26-54.58,427.37-53.74z M446.67-37.88L446.67-37.88c1.55-1.32,0.11-4.96-0.37-6.35
					c-0.26-0.76,0.37-1.62,1.1-1.78c3.52-0.82,7.15-1.07,10.16-3.05c-3.54-2.44-8.34-2.62-12.45-3.42c-2.8-0.54-5.43-1.27-7.85-2.5
					l0,0c-1.16-0.58-2.27-1.27-3.33-2.12c-0.83,0.83-1.59,1.71-2.32,2.62c0.15,0.05,0.3,0.12,0.45,0.24
					c4.22,3.29,5.18,7.34,7.82,11.75c0.96,1.61,3.66,5.82,6.2,4.95C446.32-37.62,446.51-37.74,446.67-37.88z"/>
				<path class="st2" d="M372.75-85.16c-5.39-0.88-5.25-6.03-2.61-9.73c2.34-3.27,5.92-6.93,10.02-8.07
					c0.33-0.39,0.84-0.62,1.47-0.46c0.16,0.04,0.29,0.09,0.44,0.14c0.38,0,0.67,0.13,0.87,0.34
					C390.75-99.27,379.93-83.99,372.75-85.16z M381.56-100.27c-3.84,0.83-14.53,11.19-8.37,12.2
					C377.37-87.38,385.56-97.98,381.56-100.27z"/>
			</g>
			<g class="st1">
				<path class="st2" d="M381.05-235.47c-18.49,1.27-19.92,30.01-3.45,36.53c10.85,4.29,22.35-2.08,25.15-13.18
					C405.83-224.37,393.66-238.48,381.05-235.47z M399.33-210.91c-2.93,9.38-14.53,12.99-22.68,8.17
					c-11.12-6.57-9.97-26.41,2.43-29.42c0.29,0.15,0.64,0.2,1.06,0.04c0.48-0.17,0.97-0.3,1.46-0.41c0.36-0.02,0.73-0.04,1.11-0.03
					c0.32,0.01,0.59-0.08,0.8-0.22c5.61-0.27,11.31,3.39,14.43,7.95C400.72-220.75,400.75-215.46,399.33-210.91z"/>
				<path class="st2" d="M383.09-210.8c-6.21-1.22-5.14-10.21-1.81-13.81c1.29-1.4-0.8-3.5-2.09-2.09
					c-4.75,5.15-5.44,17.07,3.12,18.75C384.17-207.58,384.96-210.43,383.09-210.8z"/>
				<path class="st2" d="M386.09-254.47c-3.73-0.19-7.47-0.17-11.21-0.23c-0.17-0.05-0.35-0.08-0.57-0.06
					c-0.13,0.01-0.26,0.03-0.39,0.04c-0.69-0.01-1.39-0.02-2.08-0.04c-0.47-0.01-0.83,0.16-1.07,0.42
					c-10.12,1.51-19.47,5.69-27.2,12.58c-6.94,6.19-13.96,16.74-9.74,26.27c2.06,4.65,5.5,8.34,9.07,11.9
					c5.11,5.09,7.04,10.45,9.94,16.88c1.82,4.04,4.45,8.83,8.85,10.53c5.18,2,10.16,0.25,15.09-1.68c3.3-1.29,6.32-2.45,9.94-2.54
					c3.15-0.08,6.34,0.71,9.48,0.97c5,0.41,9.52-1.42,13.11-4.79c7-6.58,10.55-18.56,11.7-27.74c1.39-11.14-1.19-23.8-8.3-32.66
					C406.44-252.45,395.45-253.99,386.09-254.47z M413.04-195.4c-1.95,4.25-4.38,8.42-8.31,11.12c-5.24,3.6-12.2,1.2-18,0.93
					c-10.96-0.52-21.17,11.97-29.45-1.08c-2.5-3.94-3.69-8.67-5.69-12.87c-2.22-4.67-6.21-7.83-9.67-11.53
					c-3.44-3.68-6.28-7.89-6.42-13.06c-0.16-5.89,4.34-11.58,8.06-15.67c7.69-8.46,19.08-13.1,30.3-14.17
					c8.28,0.16,16.63-0.12,24.72,1.96c11.15,2.87,16.51,12.24,18.85,22.88C419.82-216.09,417.57-205.3,413.04-195.4z"/>
			</g>
			<g class="st1">
				<path class="st2" d="M201.66-217.87c0.02-0.77-0.64-1.55-1.44-1.52c-3.08,0.12-5.92,0.8-8.74,1.84
					c-0.19-2.85-0.36-5.61-1.53-8.33c-0.42-0.99-2.06-1.05-2.56-0.09c-1.27,2.47-2.23,5.06-3.22,7.65
					c-2.28-2.32-4.32-4.55-7.98-4.55c-1,0-1.64,0.87-1.48,1.82c0.56,3.18,1.69,6.08,3.24,8.79c-12.1-6.63-28.44-0.1-30.68,14.7
					c-2.59,17.11,11.81,30.47,26.54,36.03c15.75,5.95,37.48,0.54,43.87-16.33c3.07-8.1,0.2-17.72-5.11-24.14
					c-4.42-5.34-10.75-7.04-17.35-7.45C198.56-211.31,201.52-213.51,201.66-217.87z M183.66-214.7c0.87,0.78,2.07,0.51,2.5-0.58
					c0.73-1.82,1.39-3.67,2.12-5.49c0.22,1.74,0.24,3.52,0.41,5.29c0.11,1.15,1.08,1.81,2.18,1.34c2.5-1.07,4.91-1.83,7.53-2.14
					c-1.27,3.53-6.07,4.92-9.15,6.76c-1.95,0.05-3.87,0.15-5.74,0.25c-0.05-0.1-0.11-0.19-0.18-0.29c-2.42-3.06-4.21-6.29-5.22-9.96
					C180.37-218.64,181.84-216.34,183.66-214.7z M209.49-200.95c5.89,5.49,7.61,14.75,5.35,22.23
					c-4.68,15.53-25.81,18.95-39.07,14.74c-12.17-3.86-24.45-14.21-25.84-27.55c-0.76-7.25,2.31-14.55,8.67-18.24
					c6.73-3.91,15.79-2.62,21.41,2.56c0.1,0.09,0.21,0.17,0.32,0.23c0.19,0.45,0.61,0.78,1.26,0.75c2.47-0.11,5.02-0.28,7.57-0.36
					c0.27,0.11,0.59,0.12,0.92-0.02C197.1-206.75,204.08-205.99,209.49-200.95z"/>
				<path class="st2" d="M165.82-206.41c-8.46,6.7-10.75,19.27-2.91,27.35c1.33,1.37,3.5-0.65,2.17-2.01
					c-6.79-7-4.46-17.46,2.75-23.17C169.33-205.42,167.3-207.58,165.82-206.41z"/>
			</g>
		</g>
		<g>
			<path class="st3" d="M8.53-147.21c5.07,1.56,10.61,0.65,15.8,1.66c2.58,0.5,9.37,5.07,6.05,8.15c-3.85,3.58-7.59-4.09-8.1-6.51
				c-0.36-1.71-2.91-1.56-2.97-0.04c-7.5,9.67-3.72,20.28,7.82,24.01c11.39,3.69,22.98-1.83,28.74-11.97
				c5.78-10.18,6.89-23.6-0.18-33.45c-3.61-5.04-9.57-8.1-15.74-8.03c-6.42,0.08-10.3,5.55-11.94,11.11c-0.2,0.3-0.26,0.61-0.2,0.91
				c0,0.72,0.59,1.14,1.25,1.19c0.47,0.1,0.99-0.01,1.41-0.45c4.25-4.49,14.32,3.21,4.8,5.51c-5.79,1.4-10.33-6.52-13.34-10.2
				c-5.19-6.34-13.53-8.8-19.23-1.54C-2.67-160.01,0.32-149.73,8.53-147.21z M6.6-166.72c11.64-10.46,18.75,22.32,32.9,13.12
				c7.44-4.84-0.76-12.36-7.47-11c5.31-10.3,19.04-4.71,23.56,4.95c3.8,8.11,2.08,18.04-1.95,25.68
				c-4.53,8.6-13.14,13.28-22.78,11.91c-4.24-0.6-8.4-2.66-11.07-6.04c-3.04-3.86-1.82-8.43,0.53-12.18c1.59,3.8,4.56,6.8,9.18,6.36
				c4.45-0.43,5.45-5.53,3.36-8.8c-4.06-6.34-10.89-6.24-17.71-6.53c-4.86-0.21-9.63-1.03-11.62-6.04
				C2-159.22,3.58-164.01,6.6-166.72z"/>
		</g>
		<g>
			<g class="st1">
				<path class="st2" d="M448.12-435.25c-0.74,0.49-1.73,0.75-3.02,0.67c-8.1-0.48-9.34-13.04-14.56-17.12
					c-0.25-0.2-0.41-0.43-0.51-0.68c-0.39,0.54-0.78,1.09-1.16,1.64c-0.76,1.1-2.25,0.67-2.68-0.23
					c-5.79-1.21-10.72-4.36-16.53-4.76l-0.11,0.09c-0.62,0.45-1.21,0.3-1.61-0.11c-0.84,0.02-1.7,0.1-2.58,0.27
					c-7.31,1.35-14.24,4.06-21.8,3.2c-9.27-1.05-17.19-5.15-23.45-11.49c-1.13-1.15-2.22-2.36-3.24-3.66
					c-2.45-2.24-4.18-5.36-4.66-8.57c-1.98-13.25,8.31-26.57,17.58-34.86c7.38-6.6,19.84-15.53,30.35-11.54l0,0
					c0.78,0.3,1.56,0.66,2.32,1.11c0.21,0.13,0.35,0.28,0.47,0.45l0.09,0.03c9.83,4.1,15.61,13.27,18.75,23.1l0,0
					c0.39,1.21,0.74,2.43,1.05,3.65c1.28,5.07,1.79,13.23,3.92,19.98l0.01,0.02c1.05,3.32,2.5,6.29,4.62,8.39l0,0
					c1.28,1.27,2.8,2.22,4.64,2.73c1.2,0.33,1.26,1.65,0.66,2.39c0.2,0.47,0.13,1.01-0.42,1.43l-0.06,0.05
					c7.26,5.54,18.1,2.52,24.82,9.02c0.57,0.55,0.56,1.56-0.03,2.09c-3.3,3.01-7.21,3.63-11.36,4.5
					C450.34-440.49,450.42-436.77,448.12-435.25L448.12-435.25z M376.58-472.84c2.2-1.9,4.21-4.04,6.02-6.13
					c4.45-5.11,8.48-10.69,11.72-16.65c3.99-7.34,5.27-14.99,6.62-23.14c-9.75-5.75-23.04,4.29-29.8,10.68
					c-7.68,7.27-18.32,19.78-16.04,31.38c0.29,1.49,0.87,2.97,1.66,4.32c0.18,0.11,0.35,0.26,0.49,0.47
					c0.5,0.74,1.02,1.47,1.57,2.18c2.01,1.96,4.68,3.06,7.7,2.41c0.14-0.03,0.28-0.04,0.42-0.08
					C370.52-468.33,373.72-470.38,376.58-472.84z M427.37-453.74c1.8-2.54,3.73-4.98,6.14-6.97c-7.8-3.41-10.01-13.94-11.4-21.79
					l-0.01-0.01c-0.08-0.47-0.16-0.93-0.24-1.38c-0.69-3.99-1.55-8.22-2.8-12.34l0,0c-2.66-8.74-7.07-16.93-15.39-21.07
					c-0.06,0.33-0.11,0.66-0.17,0.99l0,0c-1.57,9.09-3.53,17.34-8.47,25.35c-2.8,4.54-5.92,9.05-9.45,13.16
					c-1.95,2.27-4.02,4.41-6.24,6.36c-4.01,3.51-9.62,7.76-15.34,7.29c2.62,2.34,5.54,4.33,8.67,5.86l0.23-0.04
					c11.7-0.7,20.82-11.36,25.42-21.31c0.8-1.74,3.33-0.19,2.54,1.52c-4.4,9.52-12.54,18.98-22.92,21.88
					c3.77,1.12,7.74,1.55,11.77,1.1c0.12-0.25,0.32-0.47,0.64-0.64c10.91-5.69,19.69-16.64,21.44-28.98
					c0.27-1.87,3.23-1.81,2.96,0.08c-1.57,11.09-8.12,21.13-17.08,27.79c3.73-1.02,7.57-2.07,11.32-2.05
					c3.2-2.73,5.17-6.59,7.65-9.94c1.13-1.52,3.68-0.01,2.54,1.52c-2.21,2.99-4.05,6.15-6.49,8.85
					C417.75-457.42,422.26-454.58,427.37-453.74z M446.67-437.88L446.67-437.88c1.55-1.32,0.11-4.96-0.37-6.35
					c-0.26-0.76,0.37-1.62,1.1-1.78c3.52-0.82,7.15-1.07,10.16-3.05c-3.54-2.44-8.34-2.62-12.45-3.42c-2.8-0.54-5.43-1.27-7.85-2.5
					l0,0c-1.16-0.58-2.27-1.27-3.33-2.12c-0.83,0.83-1.59,1.71-2.32,2.62c0.15,0.05,0.3,0.12,0.45,0.24
					c4.22,3.29,5.18,7.34,7.82,11.75c0.96,1.61,3.66,5.82,6.2,4.95C446.32-437.62,446.51-437.74,446.67-437.88z"/>
			</g>
		</g>
	</g>
</pattern>
<pattern  id="SVGID_1_" xlink:href="#Motivo_nuevo_2" patternTransform="matrix(1 0 0 1 -382.2234 -325.3)">
</pattern>
<rect class="st4" width="1080" height="1920"/>
</svg>
