<?xml version="1.0" encoding="utf-8"?>
<!-- Generator: Adobe Illustrator 25.0.0, SVG Export Plug-In . SVG Version: 6.00 Build 0)  -->
<svg version="1.1" id="Capa_1" xmlns="http://www.w3.org/2000/svg" xmlns:xlink="http://www.w3.org/1999/xlink" x="0px" y="0px"
	 viewBox="0 0 140 140" style="enable-background:new 0 0 140 140;" xml:space="preserve">
<style type="text/css">
	.st0{fill:#FFC83D;}
	.st1{fill:#BF5D13;}
	.st2{fill:#FFFFFF;}
	.st3{fill:#EB0003;}
</style>
<g>
	<g>
		<path class="st0" d="M102.93,135c-1.71,0-3.5-0.39-5.31-1.17c-2.13-0.92-4.26-1.84-6.39-2.77c-3.87-1.69-7.88-3.43-11.83-5.09
			c-0.82-0.35-1.63-0.72-2.45-1.09c-2.38-1.09-4.63-2.13-6.99-2.37h-0.11c-1.03,0.01-2.13,0.42-3.07,0.82
			c-3.58,1.52-7.15,3.07-10.72,4.62c-4.62,2-9.39,4.07-14.11,6.05c-1.54,0.64-3.13,0.96-4.72,0.96c-3.13,0-6.08-1.24-8.29-3.49
			c-2.34-2.38-3.59-5.63-3.53-9.15c0.04-1.92,0.21-3.83,0.37-5.67c0.07-0.77,0.14-1.55,0.19-2.32l0.23-3.01
			c0.23-3.03,0.46-6.06,0.67-9.1c0.05-0.74,0.1-1.46,0.15-2.18c0.13-1.97,0.27-4.01,0.48-6.01c0.28-2.73-0.26-4.84-1.69-6.63
			c-2.99-3.72-6.01-7.43-9.03-11.14c-2.99-3.67-5.99-7.34-8.96-11.04c-2.29-2.85-3.21-6.18-2.65-9.64
			c0.85-5.25,3.98-8.72,9.05-10.05c7.41-1.94,14.96-3.83,22.26-5.65l3.53-0.88c2.64-0.66,4.5-2.06,5.87-4.4
			c1.35-2.3,2.7-4.6,4.06-6.9l1.57-2.67c0.88-1.49,1.75-2.99,2.63-4.49c1.89-3.24,3.85-6.6,5.85-9.86C62.26,6.97,65.67,5,69.84,5
			l0.49,0c4.2,0,7.66,2.06,9.99,5.95c3.69,6.13,7.36,12.41,10.91,18.48l3.02,5.16c1.39,2.37,3.33,3.79,6.1,4.46
			c7.19,1.71,14.46,3.58,21.49,5.39L126,45.5c4.23,1.07,7.24,4.02,8.69,8.54l0.08,0.23l0.03,0.24c0.11,0.98,0.45,4.33-0.1,6.24
			c-0.51,1.72-1.39,3.31-2.79,5.04c-2.39,2.87-4.72,5.75-6.97,8.53c-1.39,1.72-2.79,3.44-4.19,5.15c-2.11,2.58-4.22,5.16-6.29,7.77
			c-1.32,1.66-1.96,3.43-1.91,5.27c0.08,2.12,0.27,4.32,0.46,6.45l0.07,0.86c0.18,2.12,0.33,4.24,0.48,6.35
			c0.13,1.81,0.25,3.62,0.4,5.44c0.1,1.22,0.19,2.45,0.27,3.68c0.11,1.68,0.23,3.42,0.41,5.11c0.54,5.28-1.09,9.39-4.85,12.22
			C107.67,134.21,105.37,135,102.93,135z"/>
		<g>
			<path d="M70.32,7.5c3.46,0,6.05,1.73,7.84,4.73c4.71,7.83,9.3,15.73,13.92,23.61c1.81,3.08,4.35,4.82,7.67,5.62
				c8.56,2.04,17.09,4.27,25.62,6.46c3.53,0.89,5.79,3.32,6.93,6.88c0,0,0.43,3.69-0.02,5.27c-0.47,1.58-1.33,2.91-2.33,4.16
				c-2.35,2.82-4.66,5.68-6.97,8.53c-3.49,4.32-7.04,8.59-10.5,12.93c-1.59,2-2.53,4.32-2.45,6.9c0.09,2.49,0.32,4.97,0.54,7.46
				c0.34,3.93,0.56,7.85,0.88,11.78c0.25,2.95,0.38,5.9,0.68,8.85c0.41,4.04-0.59,7.49-3.87,9.96c-1.71,1.28-3.5,1.86-5.34,1.86
				c-1.41,0-2.86-0.34-4.33-0.97c-6.07-2.62-12.13-5.31-18.24-7.87c-3.35-1.41-6.58-3.32-10.28-3.65h-0.23
				c-1.42,0.02-2.74,0.46-4.05,1.02c-8.28,3.52-16.52,7.18-24.81,10.67c-1.26,0.52-2.53,0.77-3.76,0.77c-5.1,0-9.43-4.23-9.32-10.1
				c0.05-2.62,0.36-5.23,0.56-7.85c0.3-4.04,0.63-8.09,0.9-12.13c0.2-2.71,0.34-5.42,0.63-8.09c0.32-3.15-0.25-5.99-2.22-8.46
				C21.8,78.42,15.73,71.09,9.76,63.65c-1.79-2.23-2.6-4.8-2.13-7.68c0.7-4.3,3.19-6.97,7.22-8.03c8.56-2.24,17.16-4.38,25.76-6.53
				c3.24-0.82,5.7-2.62,7.42-5.57c1.86-3.19,3.74-6.36,5.63-9.55c2.81-4.77,5.55-9.59,8.46-14.3c1.77-2.89,4.35-4.49,7.72-4.49h0.21
				C70.14,7.5,70.23,7.5,70.32,7.5 M70.32,2.5c-0.11,0-0.22,0-0.33,0h-0.16c-5.01,0-9.27,2.44-11.99,6.88
				c-2.01,3.27-3.97,6.63-5.87,9.88c-0.87,1.5-1.75,3-2.63,4.49l-1.54,2.61c-1.37,2.32-2.74,4.64-4.1,6.96
				c-1.02,1.74-2.35,2.74-4.32,3.24l-3.44,0.86c-7.34,1.83-14.92,3.73-22.37,5.68C7.57,44.68,3.7,48.97,2.69,55.17
				c-0.68,4.18,0.42,8.2,3.17,11.62c2.97,3.7,6.02,7.44,8.96,11.05c2.97,3.64,6.04,7.41,9.02,11.13c0.67,0.84,1.42,2.16,1.15,4.82
				c-0.22,2.03-0.36,4.08-0.49,6.07c-0.05,0.72-0.1,1.44-0.15,2.16c-0.2,3.04-0.44,6.11-0.66,9.07l-0.23,3.05
				c-0.06,0.76-0.12,1.53-0.19,2.29c-0.17,1.88-0.34,3.83-0.38,5.83c-0.07,4.21,1.44,8.1,4.25,10.96c2.69,2.73,6.26,4.24,10.07,4.24
				c1.93,0,3.83-0.39,5.67-1.15c4.75-2,9.53-4.07,14.14-6.07c3.51-1.52,7.14-3.1,10.71-4.62c0.95-0.4,1.6-0.6,2.09-0.62
				c1.91,0.22,3.93,1.15,6.06,2.14c0.81,0.37,1.65,0.76,2.52,1.13c3.96,1.66,7.97,3.4,11.84,5.09c2.12,0.92,4.24,1.84,6.36,2.76
				c2.14,0.92,4.26,1.38,6.31,1.38c3,0,5.8-0.96,8.34-2.86c3.11-2.34,6.64-6.74,5.85-14.47c-0.17-1.65-0.28-3.3-0.4-5.03
				c-0.08-1.24-0.17-2.49-0.27-3.73c-0.14-1.77-0.27-3.59-0.39-5.36c-0.15-2.1-0.3-4.27-0.48-6.43l-0.07-0.83
				c-0.19-2.21-0.37-4.29-0.45-6.37c-0.03-1.21,0.41-2.41,1.37-3.61c2.06-2.59,4.2-5.21,6.27-7.74c1.4-1.72,2.81-3.44,4.2-5.16
				c2.26-2.79,4.6-5.68,6.92-8.48l0.02-0.03l0.02-0.03c1.61-2,2.64-3.86,3.23-5.88l0.01-0.03l0.01-0.03
				c0.63-2.2,0.38-5.47,0.17-7.21l-0.06-0.49l-0.15-0.47c-1.73-5.38-5.35-8.91-10.47-10.2l-4.1-1.05
				c-7.06-1.82-14.36-3.7-21.59-5.42c-2.11-0.51-3.46-1.49-4.52-3.29c-1-1.7-1.99-3.4-2.99-5.11c-3.56-6.09-7.25-12.39-10.96-18.55
				C79.69,5.04,75.38,2.5,70.32,2.5L70.32,2.5z"/>
		</g>
	</g>
	<path d="M86.89,86.98c-0.75,3.77-2.49,6.95-5.15,9.6c-0.32,0.33-0.64,0.66-1.08,0.82c-0.13,0.12-0.27,0.24-0.4,0.35
		c-2.46,2.09-5.27,3.28-8.48,3.5c-0.57,0.08-1.13,0.13-1.7,0.14c-0.07,0-0.13,0.01-0.19,0c-0.61,0-1.22-0.04-1.84-0.13
		c-0.57-0.04-1.13-0.11-1.68-0.21c-2.66-0.48-5.04-1.63-7.14-3.52c-3.72-2.9-5.77-6.82-6.48-11.52c-0.23-1.52,0.79-2.56,2.46-2.56
		c4.45-0.02,8.91-0.01,13.36-0.01c0.46,0,0.91-0.02,1.37-0.04c0.03,0,0.07,0,0.1,0c4.7,0.01,9.4,0.03,14.11,0.04
		C86.56,83.45,87.38,84.53,86.89,86.98z"/>
	<path class="st1" d="M97.5,55.9c-0.82,0.95-2.17,0.85-3.33-0.23c-2.53-2.35-5.54-3.58-8.89-3.7c-1.64-0.06-3.32,0.23-4.88,0.93
		c-1.42,0.63-2.7,0.18-3.21-1.05c-0.52-1.26,0.07-2.41,1.54-3.05c2.06-0.89,4.2-1.32,5.94-1.23c5.07-0.04,8.99,1.68,12.4,4.76
		C98.26,53.4,98.41,54.86,97.5,55.9z"/>
	<path d="M93.88,65.51c-0.02,0.94-0.46,1.62-1.27,2c-0.92,0.43-1.77,0.21-2.47-0.51c-1.34-1.37-2.92-2.12-4.82-2.14
		c-1.95-0.02-3.57,0.71-4.95,2.11c-0.78,0.79-1.71,1-2.69,0.42c-0.89-0.52-1.16-1.37-1.01-2.39c0.08-0.53,0.39-0.91,0.73-1.29
		c4.19-4.56,11.51-4.56,15.7,0C93.56,64.22,93.91,64.77,93.88,65.51z"/>
	<path d="M63.46,65.5c0,5-3.81,8.98-8.62,9.01c-4.67,0.03-8.64-4.13-8.64-9.04c0.01-4.97,3.86-8.96,8.66-8.97
		C59.67,56.5,63.47,60.48,63.46,65.5z"/>
	<path class="st2" d="M61.17,68.24c0,2.72-2.07,4.89-4.69,4.9c-2.54,0.01-4.7-2.25-4.7-4.92c0-2.7,2.1-4.88,4.71-4.88
		C59.11,63.34,61.18,65.51,61.17,68.24z"/>
	<path class="st3" d="M80.26,97.76c-2.46,2.09-5.27,3.28-8.48,3.5c-0.57,0.08-1.13,0.13-1.7,0.14c-0.07,0-0.13,0.01-0.19,0
		c-0.61,0-1.22-0.04-1.84-0.13c-0.57-0.04-1.13-0.11-1.68-0.21c-0.22-0.71-0.34-1.47-0.34-2.25c0.01-4.12,3.2-7.43,7.18-7.43
		C76.83,91.37,79.77,94.12,80.26,97.76z"/>
	<path class="st1" d="M63.05,51.34c-0.23,1.17-1.13,1.89-2.53,1.84c-0.09-0.03-0.41-0.11-0.71-0.22c-5.21-1.97-9.85-0.87-13.99,2.82
		c-1.05,0.94-2.46,1-3.27,0.08c-0.8-0.9-0.73-2.34,0.25-3.3c5.07-5,12.48-6.36,18.76-3.7C62.64,49.32,63.24,50.37,63.05,51.34z"/>
</g>
</svg>
