<?xml version="1.0" encoding="utf-8"?>
<!-- Generator: Adobe Illustrator 25.0.0, SVG Export Plug-In . SVG Version: 6.00 Build 0)  -->
<svg version="1.1" id="Capa_1" xmlns="http://www.w3.org/2000/svg" xmlns:xlink="http://www.w3.org/1999/xlink" x="0px" y="0px"
	 viewBox="0 0 140 140" style="enable-background:new 0 0 140 140;" xml:space="preserve">
<style type="text/css">
	.st0{fill:#FFC83D;}
	.st1{fill:#EB0003;}
</style>
<g>
	<g>
		<g>
			<circle class="st0" cx="70" cy="70" r="65"/>
			<g>
				<path d="M70,7.5c34.52,0,62.5,27.98,62.5,62.5s-27.98,62.5-62.5,62.5S7.5,104.52,7.5,70S35.48,7.5,70,7.5 M70,2.5
					C32.78,2.5,2.5,32.78,2.5,70s30.28,67.5,67.5,67.5s67.5-30.28,67.5-67.5S107.22,2.5,70,2.5L70,2.5z"/>
			</g>
		</g>
		<path d="M58.3,57.75c-0.31,1.89-2.25,3.13-4.06,2.92c-2.02-0.22-3.49-1.8-3.55-3.84c-0.01-0.69-0.05-1.38,0-2.07
			c0.13-1.44-0.61-2.29-1.84-2.83c-1.48-0.68-2.99-0.68-4.5-0.08c-1.49,0.6-1.97,1.35-1.97,2.96c0,0.69,0.03,1.39-0.01,2.08
			c-0.13,2.17-1.9,3.84-3.98,3.8c-2.12-0.05-3.76-1.75-3.82-3.96c-0.01-0.56,0-1.14,0-1.71c-0.46-6.56,5.01-10.85,10.64-11.35
			c3.54-0.32,6.77,0.54,9.55,2.82C58.41,49.48,58.99,53.45,58.3,57.75z"/>
		<path d="M103.37,80.61c-1.38-0.19-2.5,0.38-3.47,1.35C94.92,70,82.04,67.99,74.14,72.53c-7.04,4.05-12.49,14.76-5.68,25.6
			c-5.21-0.23-10-1.49-14.52-3.77c-5.48-2.77-9.94-6.72-13.41-11.77c-1.01-1.48-2.32-2.3-4.14-1.95c-2.98,0.56-4.1,3.69-2.32,6.33
			c10.56,15.72,30.46,22.73,48.75,17.08c9.69-3,17.4-8.77,23.14-17.14C107.77,84.27,106.43,81.06,103.37,80.61z M93.95,88.92
			c-4.6,4.19-9.96,6.93-16,8.36c-0.32,0.08-0.72,0.28-0.96-0.19c-1.23-2.31-2.91-4.41-3.59-7.01c-0.19-0.75-0.29-1.52-0.26-2.11
			c0.01-4.51,2.77-8.21,6.91-9.49c4.1-1.26,8.54,0.28,10.92,3.88c1.15,1.76,2.12,3.65,3.22,5.44
			C94.51,88.33,94.34,88.59,93.95,88.92z"/>
		<path d="M105.41,54.93c0,0.8,0.01,1.37,0,1.94c-0.08,2.12-1.74,3.78-3.82,3.83c-2.02,0.04-3.82-1.61-3.97-3.69
			c-0.05-0.8-0.01-1.62-0.01-2.44c0-0.28,0.03-0.57-0.04-0.86c-0.33-1.48-2.63-2.52-4.93-2.25c-2.03,0.24-3.31,1.42-3.33,3.05
			c-0.01,0.78,0.01,1.54-0.01,2.32c-0.06,2.08-1.61,3.7-3.67,3.84c-1.94,0.14-3.79-1.4-4.1-3.41c-0.88-5.76,1.7-10.56,6.81-12.65
			c5.48-2.25,11.94-0.64,15.17,3.77C105,50.42,105.58,52.68,105.41,54.93z"/>
		<path class="st1" d="M93.95,88.92c-4.6,4.19-9.96,6.93-16,8.36c-0.32,0.08-0.72,0.28-0.96-0.19c-1.23-2.31-2.91-4.41-3.59-7.01
			c-0.19-0.75-0.29-1.52-0.26-2.11c0.01-4.51,2.77-8.21,6.91-9.49c4.1-1.26,8.54,0.28,10.92,3.88c1.15,1.76,2.12,3.65,3.22,5.44
			C94.51,88.33,94.34,88.59,93.95,88.92z"/>
	</g>
</g>
</svg>
