<?xml version="1.0" encoding="utf-8"?>
<!-- Generator: Adobe Illustrator 25.0.0, SVG Export Plug-In . SVG Version: 6.00 Build 0)  -->
<svg version="1.1" id="Capa_1" xmlns="http://www.w3.org/2000/svg" xmlns:xlink="http://www.w3.org/1999/xlink" x="0px" y="0px"
	 viewBox="0 0 140 140" style="enable-background:new 0 0 140 140;" xml:space="preserve">
<style type="text/css">
	.st0{fill:#FFC83D;}
	.st1{fill:#99A2A7;}
	.st2{fill:#FEB532;}
	.st3{fill:#FEB632;}
	.st4{fill:#BF5D13;}
</style>
<g>
	<g>
		<path class="st0" d="M69.95,135c-1.49,0-2.82-0.04-4.08-0.13c-14.56-0.91-28.58-6.82-39.45-16.64c-1.98-1.81-3.66-3.53-5.17-5.27
			C11.54,101.97,5.81,87.88,5.09,73.28C5.03,72.38,5,71.35,5,70.02c0-1.5,0.04-2.85,0.13-4.14c0.91-14.56,6.82-28.58,16.64-39.47
			c1.75-1.9,3.47-3.59,5.28-5.18C38.03,11.54,52.13,5.81,66.73,5.09C67.68,5.03,68.71,5,70.05,5c1.48,0,2.82,0.04,4.08,0.13
			c14.55,0.91,28.57,6.83,39.45,16.66c1.9,1.74,3.63,3.5,5.17,5.23c9.7,11.02,15.43,25.12,16.15,39.72
			c0.08,1.17,0.09,2.35,0.09,3.25c0,1.5-0.04,2.86-0.13,4.15c-0.91,14.54-6.83,28.55-16.66,39.43c-1.67,1.86-3.46,3.62-5.29,5.21
			c-11,9.7-25.09,15.43-39.67,16.13C72.05,134.99,70.85,135,69.95,135z"/>
		<path d="M70.05,7.5c1.32,0,2.62,0.04,3.91,0.13c14.55,0.91,27.77,6.82,37.95,16.02c1.73,1.59,3.41,3.27,4.98,5.04
			c9.05,10.29,14.8,23.57,15.52,38.18c0.07,1.04,0.09,2.07,0.09,3.12c0,1.34-0.04,2.66-0.13,3.98
			c-0.91,14.55-6.82,27.75-16.02,37.93c-1.59,1.77-3.29,3.45-5.07,5c-10.29,9.07-23.57,14.82-38.14,15.52
			c-1.07,0.07-2.13,0.09-3.2,0.09c-1.32,0-2.63-0.04-3.91-0.12c-14.55-0.91-27.77-6.8-37.95-16c-1.73-1.59-3.41-3.27-4.96-5.05
			C14.05,101.04,8.3,87.75,7.59,73.16c-0.07-1.04-0.09-2.09-0.09-3.14c0-1.34,0.04-2.66,0.12-3.96c0.91-14.57,6.82-27.79,16-37.96
			c1.61-1.75,3.29-3.41,5.07-4.98C38.98,14.04,52.27,8.3,66.86,7.59C67.93,7.52,68.98,7.5,70.05,7.5 M70.05,2.5
			c-0.93,0-2.17,0.01-3.48,0.1C51.42,3.35,36.79,9.3,25.39,19.36c-1.87,1.65-3.65,3.4-5.45,5.35C9.72,36.05,3.58,50.61,2.63,65.74
			c-0.09,1.31-0.13,2.72-0.13,4.28c0,1.37,0.03,2.44,0.1,3.44c0.75,15.14,6.71,29.76,16.78,41.17c1.55,1.78,3.3,3.57,5.33,5.43
			c11.31,10.22,25.87,16.36,41.01,17.31c1.29,0.09,2.68,0.13,4.22,0.13c0.93,0,2.17-0.01,3.48-0.1
			c15.12-0.73,29.74-6.68,41.16-16.76c1.88-1.64,3.74-3.46,5.48-5.41c10.2-11.29,16.34-25.84,17.29-40.96
			c0.09-1.33,0.13-2.74,0.13-4.29c0-0.92-0.01-2.14-0.1-3.42c-0.75-15.14-6.7-29.76-16.76-41.19c-1.61-1.82-3.41-3.63-5.35-5.42
			C103.96,9.73,89.41,3.58,74.28,2.63C72.98,2.54,71.59,2.5,70.05,2.5L70.05,2.5z"/>
	</g>
	<path class="st1" d="M72.64,44.35c-1.53,0-3.06,0-4.6,0c0-3.68-0.01-7.37,0-11.05c0-1.79,0.9-2.81,2.37-2.76
		c1.41,0.04,2.22,1.03,2.23,2.76C72.65,36.98,72.64,40.66,72.64,44.35z"/>
	<path class="st2" d="M70.34,71.97c5.86,0.05,9.6,3.85,11.41,8.54c0.46,1.2-0.29,2.48-1.49,2.87c-1.23,0.4-2.41-0.23-2.96-1.59
		c-0.94-2.34-2.5-4.07-4.92-4.89c-3.54-1.2-7.4,0.88-8.96,4.76c-0.56,1.39-1.51,2.01-2.73,1.79c-1.34-0.25-2.26-1.65-1.76-2.95
		C60.73,75.8,64.5,72.04,70.34,71.97z"/>
	<path class="st3" d="M61.02,67.36c-1.33-0.06-2.28-1.15-2.18-2.48c0.09-1.27,1.12-2.17,2.41-2.11c1.33,0.06,2.28,1.15,2.18,2.48
		C63.33,66.51,62.3,67.42,61.02,67.36z"/>
	<path class="st3" d="M81.85,65.04c0.01,1.34-1.01,2.35-2.35,2.32c-1.28-0.03-2.24-1-2.25-2.28c-0.01-1.34,1.01-2.34,2.35-2.32
		C80.88,62.79,81.84,63.76,81.85,65.04z"/>
	<circle class="st4" cx="70" cy="70.01" r="25"/>
	<g>
		<path class="st4" d="M73.96,7.63v8.7c0,0.91-0.75,1.66-1.66,1.66h-3.8c-0.91,0-1.64-0.75-1.64-1.66V7.59
			c1.07-0.07,2.13-0.09,3.2-0.09C71.38,7.5,72.68,7.54,73.96,7.63z"/>
		<path class="st4" d="M33.48,32.93c-1.37,1.39-3.62,1.39-5.02,0l-4.84-4.84c1.61-1.75,3.29-3.41,5.07-4.98l4.79,4.79
			C34.88,29.3,34.88,31.55,33.48,32.93z"/>
		<path class="st4" d="M17.98,69.36v0.5c0,1.84-1.5,3.3-3.3,3.3H7.59c-0.07-1.04-0.09-2.09-0.09-3.14c0-1.34,0.04-2.66,0.13-3.96
			h7.05C16.48,66.05,17.98,67.54,17.98,69.36z"/>
		<path class="st4" d="M32.93,111.55l-4.84,4.82c-1.73-1.59-3.41-3.27-4.96-5.05l4.77-4.8c1.39-1.39,3.64-1.39,5.04,0
			C34.32,107.89,34.32,110.14,32.93,111.55z"/>
		<path class="st4" d="M73.14,123.7v8.71c-1.07,0.07-2.13,0.09-3.2,0.09c-1.32,0-2.63-0.04-3.91-0.12v-8.68
			c0-0.93,0.75-1.66,1.66-1.66h3.8C72.41,122.04,73.14,122.77,73.14,123.7z"/>
		<path class="st4" d="M116.36,111.89c-1.59,1.77-3.29,3.45-5.07,5l-4.77-4.79c-1.39-1.39-1.39-3.64,0-5.02
			c1.38-1.39,3.63-1.39,5.02,0L116.36,111.89z"/>
		<path class="st4" d="M132.5,69.98c0,1.34-0.04,2.66-0.13,3.98h-7.05c-1.8,0-3.3-1.48-3.3-3.3v-0.5c0-1.84,1.5-3.3,3.3-3.3h7.09
			C132.48,67.89,132.5,68.93,132.5,69.98z"/>
		<path class="st4" d="M116.89,28.68l-4.79,4.82c-1.39,1.39-3.64,1.39-5.04,0c-1.39-1.38-1.39-3.64,0-5.04l4.84-4.82
			C113.64,25.23,115.32,26.91,116.89,28.68z"/>
	</g>
	<g>
		<path d="M75.17,31.59c0-1.72-1.4-3.12-3.12-3.12h-3.09c-1.72,0-3.12,1.4-3.12,3.12v37.73L46.8,88.35c-1.82,1.82-1.82,4.78,0,6.6
			c0.88,0.88,2.05,1.37,3.3,1.37c1.25,0,2.42-0.49,3.3-1.37l20.4-20.4c0.88-0.88,1.37-2.05,1.37-3.3c0-0.01,0-0.01,0-0.02
			c0-0.01,0-0.01,0-0.02V31.59z"/>
	</g>
</g>
</svg>
